<?xml version="1.0" encoding="UTF-8" standalone="no"?>
<svg
   class="card"
   face="AS"
   height="16"
   preserveAspectRatio="none"
   viewBox="-120 -168 16 16"
   width="16"
   version="1.1"
   id="svg8"
   xmlns:xlink="http://www.w3.org/1999/xlink"
   xmlns="http://www.w3.org/2000/svg"
   xmlns:svg="http://www.w3.org/2000/svg">
  <defs
     id="defs2">
    <symbol
       id="VSA"
       viewBox="-500 -500 1000 1000"
       preserveAspectRatio="xMinYMid">
      <path
         d="m -270,460 h 160 M -200,450 0,-460 200,450 m -90,10 H 270 M -120,130 h 240"
         stroke="#000000"
         stroke-width="80"
         stroke-linecap="square"
         stroke-miterlimit="1.5"
         fill="none"
         id="path1" />
    </symbol>
    <symbol
       id="SSA"
       viewBox="-600 -600 1200 1200"
       preserveAspectRatio="xMinYMid">
      <path
         d="m 0,-500 c 100,250 355,400 355,685 a 150,150 0 0 1 -300,0 10,10 0 0 0 -20,0 c 0,200 50,215 95,315 h -260 c 45,-100 95,-115 95,-315 a 10,10 0 0 0 -20,0 150,150 0 0 1 -300,0 c 0,-285 255,-435 355,-685 z"
         id="path2" />
    </symbol>
  </defs>
  <use
     xlink:href="#SSA"
     fill="#000000"
     height="164.8"
     width="164.8"
     x="-82.400002"
     y="-82.400002"
     stroke="#000000"
     stroke-width="100"
     stroke-dasharray="100, 100"
     stroke-linecap="round"
     id="use2"
     transform="matrix(0.10141275,0,0,0.10141275,-112.00278,-159.87943)" />
  <use
     xlink:href="#SSA"
     fill="#000000"
     height="164.8"
     width="164.8"
     x="-82.400002"
     y="-82.400002"
     stroke="#ffffff"
     stroke-width="50"
     id="use3"
     transform="matrix(0.10141275,0,0,0.10141275,-112.00278,-159.87943)" />
  <use
     xlink:href="#SSA"
     fill="black"
     height="164.8"
     width="164.8"
     x="-82.400002"
     y="-82.400002"
     id="use4"
     style="fill:#ff0000"
     transform="matrix(0.10141275,0,0,0.10141275,-112.00278,-159.87943)" />
  <path
     fill="#ffffff"
     stroke="none"
     d="m -112.00278,-163.33742 0.85535,0.85535 -0.85535,0.85535 -0.85535,-0.85535 m 0.85535,-0.61097 -0.61097,0.61097 0.61097,0.61096 0.61097,-0.61096 m 0.36658,0.12219 0.61096,0.61097 -0.36658,0.36658 -0.12219,-0.1222 -0.24439,0.24439 0.1222,0.12219 -0.24439,0.24439 -0.12219,-0.12219 0.24438,-0.24439 -0.12219,-0.12219 -0.24439,0.24438 -0.12219,-0.12219 0.24439,-0.24439 -0.1222,-0.12219 -0.24438,0.24439 -0.1222,-0.1222 0.24439,-0.24438 0.12219,0.12219 0.1222,-0.12219 -0.1222,-0.1222 m 0.48878,-0.24438 -0.1222,0.12219 0.24439,0.24439 -0.12219,0.12219 0.12219,0.12219 0.24439,-0.24438 m 0.36658,0.12219 0.85535,0.85535 -0.85535,0.85536 -0.85536,-0.85536 m 0.85536,-0.61096 -0.61097,0.61096 0.61097,0.61097 0.61096,-0.61097 m -2.32167,-2.07728 0.36658,0.36658 -0.36658,0.36658 -0.36658,-0.36658 m 2.07729,1.34412 0.36658,0.36658 -0.36658,0.36658 -0.36658,-0.36658 m -2.32168,-1.58851 0.24439,0.24439 -0.12219,0.12219 0.24438,0.24439 0.1222,-0.1222 0.36658,0.36658 -0.1222,0.1222 -0.12219,-0.1222 -0.12219,0.1222 0.36658,0.36658 0.12219,-0.1222 0.24439,0.24439 0.12219,-0.12219 0.12219,0.12219 -0.12219,0.12219 0.24439,0.24439 -0.36658,0.36658 0.12219,0.12219 0.48877,-0.48877 0.1222,0.12219 -0.1222,0.1222 0.1222,0.12219 0.12219,-0.12219 0.48877,0.48877 -0.12219,0.12219 -0.12219,-0.12219 -0.1222,0.12219 0.1222,0.1222 -0.1222,0.12219 -0.12219,-0.12219 -0.12219,0.12219 0.12219,0.12219 -0.12219,0.1222 -0.24439,-0.24439 -0.12219,0.12219 -0.24439,-0.24438 0.12219,-0.1222 0.24439,0.24439 0.24439,-0.24439 -0.24439,-0.24438 -0.12219,0.12219 -0.24439,-0.24439 -0.12219,0.1222 -0.36658,-0.36658 -0.1222,0.12219 0.36658,0.36658 -0.24438,0.24439 0.12219,0.12219 0.12219,-0.12219 0.1222,0.12219 -0.1222,0.12219 -0.12219,-0.12219 -0.24439,0.24439 -0.12219,-0.1222 -0.24439,0.24439 0.1222,0.12219 0.12219,-0.12219 0.12219,0.12219 0.24439,-0.24438 0.12219,0.12219 0.1222,-0.12219 0.12219,0.12219 0.12219,-0.12219 0.1222,0.12219 0.12219,-0.12219 0.12219,0.12219 -0.24438,0.24439 -0.1222,-0.1222 -0.12219,0.1222 0.12219,0.12219 -0.12219,0.12219 -0.24439,-0.24438 -0.12219,0.12219 -0.12219,-0.12219 -0.24439,0.24438 -0.73316,-0.73316 0.12219,-0.12219 -0.12219,-0.12219 -0.12219,0.12219 -0.1222,-0.12219 0.1222,-0.1222 -0.1222,-0.12219 -0.12219,0.12219 -0.12219,-0.12219 0.24438,-0.24439 0.1222,0.1222 0.24438,-0.24439 -0.12219,-0.12219 0.24439,-0.24439 0.12219,0.12219 0.12219,-0.12219 -0.12219,-0.12219 0.12219,-0.1222 -0.24438,-0.24438 0.12219,-0.1222 0.12219,0.1222 0.1222,-0.1222 -0.36658,-0.36658 -0.1222,0.1222 0.1222,0.12219 -0.1222,0.12219 -0.12219,-0.12219 0.12219,-0.12219 -0.36658,-0.36658 -0.12219,0.12219 -0.12219,-0.12219 0.36658,-0.36658 0.24438,0.24438 0.1222,-0.12219 -0.24439,-0.24438 m 0.48877,0.48877 -0.12219,0.12219 0.12219,0.12219 0.1222,-0.12219 m 0.73316,0.73316 -0.24439,0.24439 0.12219,0.12219 -0.12219,0.12219 0.12219,0.1222 0.24439,-0.24439 -0.12219,-0.12219 0.12219,-0.1222 m 0.61097,0.61097 -0.1222,0.12219 0.24439,0.24439 0.12219,-0.12219 m -2.19948,-1.9551 -0.12219,0.1222 0.24439,0.24438 0.12219,-0.12219 m 0.61097,0.61097 -0.1222,0.12219 -0.12219,-0.12219 -0.24439,0.24438 0.1222,0.1222 0.12219,-0.1222 0.24439,0.24439 0.12219,-0.12219 -0.12219,-0.1222 0.12219,-0.12219 m 0.73316,0.73316 -0.12219,0.12219 0.12219,0.1222 0.12219,-0.1222 m 0.24439,0.24439 -0.12219,0.12219 0.12219,0.1222 0.12219,-0.1222 m -1.58851,-0.61096 -0.12219,0.12219 0.12219,0.12219 0.12219,-0.12219 m -1.46632,-1.46632 0.85536,0.85535 -0.85536,0.85536 -0.85535,-0.85536 m 0.85535,-0.61096 -0.61096,0.61096 0.61096,0.61097 0.61097,-0.61097 m 0.36658,0.36658 -0.24439,0.24439 0.1222,0.12219 -0.1222,0.1222 0.1222,0.12219 0.12219,-0.12219 0.12219,0.12219 -0.36658,0.36658 0.1222,0.12219 0.36658,-0.36658 0.24438,0.24439 0.1222,-0.12219 -0.1222,-0.1222 0.1222,-0.12219 -0.1222,-0.12219 -0.12219,0.12219 -0.24439,-0.24439 0.1222,-0.12219 m -1.22194,-0.97755 0.36658,0.36658 -0.36658,0.36658 -0.36658,-0.36658 m 0.97755,0.97755 -0.12219,0.12219 0.12219,0.1222 0.12219,-0.1222 m 1.09974,1.09974 0.1222,0.1222 -0.24439,0.24438 -0.24439,-0.24438 0.1222,-0.1222 0.12219,0.1222"
     id="path4"
     style="stroke-width:0.172807" />
</svg>
