<?xml version="1.0" standalone="no"?>
<!DOCTYPE svg PUBLIC "-//W3C//DTD SVG 1.1//EN" "http://www.w3.org/Graphics/SVG/1.1/DTD/svg11.dtd" >
<svg>
<metadata>
Created by FontForge 20110222 at Mon Mar  7 03:40:07 2011
 By www-data
CARD CHARACTERS font v1.0 (c) 2003 Harold Lohner  HLohner@aol.com  http://www.haroldsfonts.com    Based on the characters on Bicycle playingcards
</metadata>
<defs>
<font id="CardCharacters" horiz-adv-x="650" >
  <font-face 
    font-family="Card Characters"
    font-weight="400"
    font-stretch="normal"
    units-per-em="1000"
    panose-1="0 0 4 0 0 0 0 0 0 0"
    ascent="800"
    descent="-200"
    x-height="829"
    cap-height="831"
    bbox="0 -159 2069 1017"
    underline-thickness="20"
    underline-position="-123"
    unicode-range="U+0020-203A"
  />
    <missing-glyph />
    <glyph glyph-name="space" unicode=" " 
 />
    <glyph glyph-name="exclam" unicode="!" 
d="M369 248h-88l-23 230v351h133v-351zM256 133h139v-138h-139v138z" />
    <glyph glyph-name="quotedbl" unicode="&#x22;" 
d="M287 829v-153l-22 -164h-80l-22 164v153h124zM487 829v-153l-22 -164h-80l-22 164v153h124z" />
    <glyph glyph-name="numbersign" unicode="#" horiz-adv-x="825" 
d="M607 901l-7 -8q-43 35 -90 40q-55 39 -140 52l2 11q84 -13 142 -53q49 -5 93 -42zM652 854l-6 -9q-136 91 -330 129l2 10q194 -37 334 -130zM695 800l-7 -8q-82 59 -188 104q-120 52 -206 57v11q92 -6 210 -57q99 -43 191 -107zM721 759l-7 -8q-96 70 -221 122
q-140 58 -244 61v11q111 -3 248 -60q118 -50 224 -126zM745 693l-5 -10q-18 9 -83 62l-22 3q-30 29 -109 63q-66 28 -122 43q-123 32 -213 32v11q105 0 216 -33q173 -51 233 -106h4q-24 26 -79 57q-124 68 -332 99l1 11q281 -43 403 -146q8 -8 25 -23l29 -4q15 -7 43 -25
l-7 -9q-12 10 -39 24l-11 1q22 -19 68 -50zM744 646l-5 -10q-24 12 -66 40q-28 26 -101 65q-132 70 -304 99l2 10q174 -29 307 -100q28 -14 84 -53q52 -36 83 -51zM764 652l-7 -9q-111 94 -267 157q-166 67 -300 62l-1 11h11q179 5 386 -105q104 -55 178 -116zM769 555
l-8 -7q-40 51 -91 95h-1l-2 3q-169 146 -329 149l-1 -2l-4 2v0q-15 14 -58 11l-1 11q11 1 22 0q-14 5 -26 3l-2 10q5 1 9 1q24 1 59 -25q165 0 336 -151q2 0 4 1q31 0 74 -43l-7 -8q-36 36 -59 40q51 -47 85 -90zM775 509l-9 -6q-79 118 -211 198q-142 86 -274 82v11h5
q181 4 351 -137q85 -71 138 -148zM775 390l-10 -3l-9 25l10 4zM770 488l-8 -6q-139 182 -252 229q135 -75 253 -254l-9 -6q-56 87 -132 160q-91 88 -171 114v0q-78 33 -163 35v11q91 -3 171 -37q33 0 82 -27q106 -57 229 -219zM755 325l-10 -3l-8 28l10 3zM252 827
q-9 -7 -19 -8q-8 0 -19 5l-1 -1l-3 2l-36 -9l-3 11l38 8q4 6 11 10l-49 -7l-2 11l52 7l2 -9q8 5 21 9l3 -11q-18 -5 -26 -12q9 -3 14 -3q4 0 10 5zM760 430l-9 -6q-145 220 -307 279q-23 8 -68 22.5t-80 13.5q-54 -1 -108 -24q-32 -15 -96 -56l-6 9q106 69 141 73q23 4 69 9
q37 1 83 -14q59 -19 80 -27q44 -17 76 -38q112 -71 225 -241zM259 812l-1 -10q-18 2 -36 2q-39 -1 -70 -16l-5 10q33 16 77 16q19 1 35 -2zM273 792l-2 -10q-12 2 -25 2q-45 -1 -107 -23l-3 10q63 23 109 24q15 0 28 -3zM756 387l-11 -3q-19 65 -46 82q40 -70 46 -111
l-11 -2q-6 44 -50 117v0q-1 3 -4 8v0q-39 71 -107.5 129t-144.5 84q-16 5 -60 14q-8 3 -21 7q-27 7 -57 7q-32 -1 -84 -20q-58 -22 -70 -45l-1 1l-11 -11l-7 8l6 6q-17 -1 -36 -33l-9 5q22 39 46 39q5 0 10 -2q74 61 156 62q31 1 59 -7q8 -2 21 -7q26 -5 77 -19
q156 -59 244 -215q37 -2 65 -94zM284 766l-40 -8q-7 -17 -32 -17q-20 -1 -42 -14l-6 9q24 15 54 15q10 0 15 9q-8 4 -18 4q-30 -1 -83 -32l-5 9q52 32 88 33q16 0 26 -6l41 9zM165 722q-16 -1 -40 -21l-7 8q27 23 41 23h6v-10zM706 181q-15 -33 -29 -44l-6 8
q-20 -29 -58 -50l-6 10q62 33 72 85l10 -3q-4 -21 -17 -40q10 8 24 39zM635 186q-28 -41 -57 -41q-32 -1 -62 47q-13 23 -40 70q-37 64 -97 165l-3 5l9 5l3 -4q58 -97 95 -161l42 -75q27 -41 51 -41t51 36zM680 132q-21 -32 -44 -41l-4 11q20 7 40 36zM746 303l-11 -1
q-5 34 -24 59q-28 126 -141 228q-37 33 -100 63q-59 27 -112 38q-37 8 -64 8q-61 -1 -121 -49q-12 -20 -32 -36q5 3 12 5q25 30 56 39q26 27 81 28q66 1 141 -28q141 -53 212 -162q44 -67 61 -128q34 -46 37 -116l-11 -1q-2 42 -17 79q8 -40 8 -72q1 -36 -9 -55l-9 4
q8 18 8 51q-1 36 -13 90q-14 58 -30 86q-23 40 -36 58q-21 32 -41 54q-59 62 -164 102q-72 28 -137 27q-50 -1 -74 -25q33 18 77 19q80 1 165 -46h4q31 1 97 -53.5t117 -172.5q25 -58 26 -133q1 -31 -4 -59l-11 1q4 27 4 63q-2 96 -61 195.5t-143 140.5q75 -52 129 -139.5
t66 -178.5l2 -2l-1 -1q2 -16 2 -30q1 -61 -35 -103q-20 -24 -30 -34q-19 -17 -38 -25q-30 -32 -62 -32q-49 -1 -94 64q-29 42 -68 135.5t-52 113.5q7 -66 75 -198q64 -123 140 -122q46 1 96 45l7 -8q-22 -20 -42 -31q36 14 77 37l5 -9q-107 -60 -170 -61q-11 0 -17 1
q-9 -2 -18 -2q-53 -1 -95 58t-51 72q-27 42 -41 76v5q1 16 -8 29q10 -65 41 -116q50 -78 66 -95q41 -41 104 -40h26q20 0 50 16q44 22 99 39l5 1l3 -10l-5 -2q-55 -16 -97 -38q-32 -17 -55 -17h-26q-87 -2 -147 90q-69 107 -77 184l-2 1l2 3q-23 68 -24 122q0 36 9 63l10 -3
q-8 -26 -8 -59q1 -53 23 -121q24 -19 22 -50q31 -77 98 -154q38 -44 78 -43q9 0 18 3q6 -2 17 -2q17 0 38 5h-9q-90 -2 -152 129q-73 153 -76 203q-1 7 -2 21l2 1q-4 15 -4 30q-1 64 43 75q14 2 41 9q-13 6 -25 5q-16 0 -30 -11l-7 8q18 14 39 15q12 0 33 -10
q66 -32 121 -121q11 -17 47 -91q16 -33 46 -99q3 -7 4 -17q2 6 2 13t-2 16l-4 4l2 2q-5 21 -19 47q-2 4 -7 12q-6 18 -19 54q-58 137 -154 187q-31 16 -69 15q-75 -1 -76 -74h-10q0 83 83 85q43 0 77 -17q99 -51 158 -190q7 -19 20 -55q3 -5 8 -15q14 -28 20 -51q5 -7 8 -7
q4 0 4 12q-77 213 -144 267q-44 36 -61 45q-25 13 -73 21l2 11q49 -8 75 -22q18 -10 64 -46q69 -56 148 -275q-1 -25 -13 -25q-4 0 -8 3v-3q2 -37 -30 -38q-31 0 -60 57q-61 120 -66 128q-56 101 -83 100h-2q-4 -13 -3 -24q0 -18 21 -52t93 -162q44 -80 86 -79q11 0 22 7
q0 1 1 1q51 37 51 73q-1 43 -51 146q-48 100 -82 135q-67 68 -150 93q-6 -6 -44 -9q-43 -4 -69 -21q-40 -26 -61 -90l-10 4q35 107 145 118q12 1 30 5v-2v-1l4 5q-5 -1 -12 -1q-10 1 -27 3q-25 0 -55 -12q-107 -42 -104 -208q1 -38 6 -66q17 -90 50 -175q47 -118 98 -141
q4 -4 11 -3q7 0 18 4q12 -22 65 -19l1 -11h-5q-37 -2 -58 10l1 -4q-12 -3 -24 -4q-23 0 -47 11l5 10q21 -10 42 -10q11 0 17 2l-2 2q-7 -2 -13 -2q-8 0 -18 5q-19 12 -30 22q-43 43 -80 141q-31 84 -41 160q-6 42 -6 68q-3 159 94 211q-113 -44 -110 -179q0 -15 3 -36
q0 -14 2 -41q23 -227 148 -335l-7 -8q-96 81 -134 241q-14 59 -22 162q-2 -25 -1 -52q4 -218 125 -325l-7 -8q-74 66 -103 154q-24 70 -26 184q-3 159 53 233q-38 -38 -59 -127q-17 -73 -16 -142q1 -26 4 -53l-11 -1q-3 28 -4 54q-1 60 14 132q18 82 47 124l-12 -18v-3h-3
q-49 -79 -52 -184h-11q2 99 46 175q-31 -27 -46 -119l-11 1q11 66 31 103l-8 3q13 38 34 52l6 -9q-16 -11 -27 -38q13 20 32 25q39 61 94 93q-26 -8 -49 -34l1 -1q-3 -2 -5 -4q-14 -13 -30 -35l-9 6q7 10 12 16q-8 -7 -16 -19l-9 6q7 12 16 20l-13 -7v0q-39 -29 -42 -88
l-11 1q4 62 45 94l-1 1l2 1q3 28 62 53l1 3l2 -1q57 48 129 50q118 2 259 -94q58 -39 103.5 -109t61.5 -140q20 -27 25 -63zM120 641l-29 -38v0l-19 -31l-9 5l19 34l1 -1l28 37zM466 47l-4 -10q-38 14 -63.5 45t-50.5 61l-1 1v1q-45 55 -72 130t-28 147v25h11v-24
q2 -140 90 -262q-6 34 -52 132q-30 64 -32 133q-1 100 77 111l1 -11q-68 -10 -67 -98q2 -66 31 -130q16 -37 33 -74q22 -53 20 -76q23 -29 47.5 -59t59.5 -42zM489 -13q-30 -6 -56 -6q-51 -1 -73 12q-39 22 -84 95q-40 65 -54 116q-30 105 -32 199q-1 36 4 56q5 17 21 51
q9 19 11 23q8 12 18 17l4 -10q-12 -7 -25 -39l-4 2l3 -3q-23 -25 -21 -96q1 -93 31 -197q14 -49 53 -113q44 -72 80 -92q21 -11 66 -10q25 0 56 6zM416 8l-1 -11l-5 1q-21 1 -51 25q-102 80 -142 295q-6 33 -7 70q-1 73 21 120q30 62 96 63h17l-1 -11h-12q-112 -2 -110 -169
q1 -36 7 -71q14 -90 61 -185q60 -122 127 -127zM630 -6l-57 -22l-4 10l57 22zM662 37q-108 -71 -247 -80v11q132 6 241 78zM563 -30q-12 -9 -53 -25l-4 10q18 7 51 24zM331 5l-7 -8q-74 63 -116 185q-35 104 -37 218q-1 35 2 66l11 -1q-4 -41 -4 -82q4 -209 121 -346
q18 -22 30 -32zM503 -53q-20 -9 -90 -17l-2 11q23 2 45 5q26 3 43 11zM500 -75q-41 -18 -102 -18l-10 -1v11h11q57 0 97 18zM173 80l-8 -7q-69 81 -73 262q0 19 1 37l11 -1q-1 -18 -1 -38q3 -172 70 -253zM409 -71l-67 -6l-1 11l67 5zM365 -45q-18 -4 -34 -5q-19 0 -38 4
l2 11q19 -4 36 -4q14 0 31 5zM226 18l-7 -9q-34 25 -46 48l9 5q11 -21 44 -44zM457 610l-3 1l2 -1h1zM454 611l-4 2v0zM480 555q-15 20 -36 24q10 -12 36 -24zM654 247q0 22 -11 46q-10 21 -20 43q-4 10 -11 30q-28 72 -72 122q-15 19 -49 53l-1 -2q-48 19 -60 42
q-17 13 -57 27q-4 -7 -11 -10q94 -27 157 -96q73 -79 133 -273q2 9 2 18zM667 313q-21 98 -86 184t-152 127q-72 34 -135 33q-75 -2 -138 -70q58 60 143 61q21 1 80 -12q12 -2 37 -9q49 -19 118 -89.5t89 -120.5q26 -67 44 -104zM674 255q0 12 -2 26q-13 17 -32 64
q-26 65 -27 67q-8 17 -39 59q-84 116 -162 146q-10 4 -35 9q-61 11 -78 11q-11 0 -21 -1q32 0 82 -13.5t75 -31.5l2 1v-1q37 -3 58 -39q10 -7 53 -57q37 -43 70 -118q5 -13 14 -37q4 -5 10 -17q22 -41 23 -75q0 -24 -11 -43q-5 -39 -51 -72q-6 -28 -45 -29q-51 -1 -125 116
q8 -27 45 -69l-9 -7q-47 53 -47 83q0 5 1 10q-85 143 -86 195q0 29 18 30q6 0 14 -4q3 2 7 2q32 0 90 -100q37 -63 69 -134q22 -52 51 -51q-8 5 -15 17q-1 2 -33 61q-27 51 -82 151q-43 74 -92 73q-40 -1 -39 -40q0 -18 11 -42v0q55 -134 74 -172q63 -126 113 -137l-2 -10
q-72 15 -151 206q-18 43 -52 129v1q-3 13 -4 25q-1 50 50 51q56 1 101 -78q13 -21 83 -151q10 -22 33 -62q6 -10 12 -14q0 7 -4 18q-1 1 -22 48q-48 108 -70 143q-50 82 -111 111q-7 -6 -21.5 -8.5t-27.5 -4.5q-38 -10 -37 -62q1 -18 7 -40q13 -12 57 -117q36 -85 59 -122
q48 -80 96 -79q21 0 41 16q-3 -1 -7 -1q-45 -1 -76 47l9 6q28 -42 68 -42q11 0 21 4l4 5l3 -2q30 13 66 62q27 35 26 90zM362 611q-47 15 -84 14q-100 -2 -136 -115q23 49 70 76.5t101 27.5h6v-5q14 -4 26 -4q12 1 17 6zM152 639q-28 -16 -36 -29q22 12 36 29zM586 124
q-7 -2 -15 -2q-57 -1 -107 105q-22 46 -82 142q-22 35 -22 56q0 11 3 24q-4 1 -7 1q-9 0 -8 -14q1 -56 79 -186q83 -136 132 -135q19 0 27 9zM435 239v-1l-1 1h1z" />
    <glyph glyph-name="dollar" unicode="$" 
d="M184 284h14v0h-14zM274 483v163q-33 -8 -55 -28q-27 -23 -27 -54q0 -30 27 -53q22 -20 55 -28zM365 376v-199q37 10 62 38t25 64q0 65 -87 97zM274 829h91v-93q6 -1 63 -31v21h81l1 -166h-82q-2 61 -63 80v-169q72 -17 122 -67q56 -55 56 -125q0 -74 -51.5 -128.5
t-126.5 -67.5v-87h-91v89q-18 4 -75 41v-27l-91 -1l-1 187q84 -1 91 -1q0 -75 76 -103v208q-70 10 -119 57q-54 51 -54 118q0 68 54 119q50 47 119 57v89z" />
    <glyph glyph-name="percent" unicode="%" 
d="M49 -2l433 829h119l-432 -829h-120zM200 526q-62 0 -106.5 44.5t-44.5 107.5q0 62 44.5 107t106.5 45t106.5 -45t44.5 -107q0 -63 -44.5 -107.5t-106.5 -44.5zM200 742q-26 0 -45 -19t-19 -45q0 -27 19 -45.5t45 -18.5t45 18.5t19 45.5q0 26 -19 45t-45 19zM453 -7
q-62 0 -106.5 44.5t-44.5 107.5t44.5 107.5t106.5 44.5t106.5 -44.5t44.5 -107.5t-44.5 -107.5t-106.5 -44.5zM453 209q-26 0 -45 -19t-19 -45t19 -45t45 -19t44.5 19t18.5 45t-18.5 45t-44.5 19z" />
    <glyph glyph-name="ampersand" unicode="&#x26;" 
d="M151 236q0 -63 44 -108t107 -45q55 0 101 38l-152 257q-100 -42 -100 -142zM51 236q0 73 39.5 134t108.5 95l-90 151l1 215h434v-210h-99v109h-236v-86l245 -413v131h-41v101h185v-101h-44v-126q-5 -71 -31 -122l12 -20h64v-101h-121l-23 41q-71 -52 -153 -52
q-104 0 -177.5 75t-73.5 179z" />
    <glyph glyph-name="quotesingle" unicode="'" 
d="M392 677l-22 -165h-90l-22 165v152h134v-152z" />
    <glyph glyph-name="parenleft" unicode="(" 
d="M314 391q0 -252 115 -384l-85 -74q-143 163 -143 458q0 135 36 256q46 152 139 231l73 -87q-70 -60 -106 -187q-29 -102 -29 -213z" />
    <glyph glyph-name="parenright" unicode=")" 
d="M336 391q0 -252 -115 -384l85 -74q143 163 143 458q0 135 -36 256q-46 152 -139 231l-73 -87q70 -60 106 -187q29 -102 29 -213z" />
    <glyph glyph-name="asterisk" unicode="*" 
d="M587 573l-182 -59l112 -155l-79 -58l-113 155l-112 -155l-80 58l112 154l-182 59l31 94l182 -59v191h98v-190l182 59z" />
    <glyph glyph-name="plus" unicode="+" 
d="M270 202v156h-156v109h156v156h110v-156h156v-109h-156v-156h-110z" />
    <glyph glyph-name="comma" unicode="," 
d="M335 -129h-69l50 124h-65v154h149v-154z" />
    <glyph glyph-name="hyphen" unicode="-" 
d="M164 467h322v-109h-322v109z" />
    <glyph glyph-name="hyphen" unicode="&#x2010;" 
d="M164 467h322v-109h-322v109z" />
    <glyph glyph-name="period" unicode="." 
d="M400 -5h-149v154h149v-154z" />
    <glyph glyph-name="slash" unicode="/" 
d="M44 -7l440 839h122l-440 -839h-122z" />
    <glyph glyph-name="zero" unicode="0" 
d="M50 264v297q0 116 80 200t195 84t195 -84t80 -200v-297q0 -116 -80 -201.5t-195 -85.5t-195 85.5t-80 201.5zM166 561v-297q0 -68 46.5 -118.5t112.5 -50.5t112.5 51t46.5 118v297q0 67 -46.5 116t-112.5 49t-112.5 -49t-46.5 -116z" />
    <glyph glyph-name="one" unicode="1" 
d="M557 -7h-464v118h177v602h-177v118h291v-720h173v-118z" />
    <glyph glyph-name="two" unicode="2" 
d="M486 213h107v-216h-535v55q0 151 110 271q43 46 205 165q110 81 110 139q0 54 -61 84q-48 24 -109 24q-149 0 -149 -100q0 -21 11 -47l-100 -42q-18 47 -18 89q0 104 78 160q70 50 178 50t187 -54q91 -61 91 -164q0 -96 -96 -180l-188 -144q-110 -92 -133 -196h312v106z
" />
    <glyph glyph-name="three" unicode="3" 
d="M313 -19q-96 0 -172 66q-69 60 -102 156l102 36q21 -63 63 -103q48 -46 109 -46q76 0 131 60t55 136q0 75 -47 122t-123 47q-35 0 -55 -9t-48 -35l-77 76l249 234h-239v-107h-108v217h547v-69l-213 -202q101 -19 161.5 -94.5t60.5 -179.5q0 -121 -87 -213t-207 -92z" />
    <glyph glyph-name="four" unicode="4" 
d="M318 103h68v89h-332v87l347 550h92v-527h103v-110h-103v-89h51v-109h-226v109zM197 302h189v300z" />
    <glyph glyph-name="five" unicode="5" 
d="M312 -23q-90 0 -165 62q-66 57 -103 147l100 42q24 -59 64 -97q47 -45 104 -45q80 0 133 75q48 67 48 149q0 83 -48 148q-52 71 -133 71q-69 0 -137 -75l-78 46v331h406v-110h-298v-107q52 24 107 24q126 0 210 -103q79 -96 79 -225t-78 -227q-85 -106 -211 -106z" />
    <glyph glyph-name="six" unicode="6" 
d="M57 344h-1q-2 -4 -2 71q0 176 48 283q68 147 223 147q76 0 141 -41q62 -40 101 -108l-93 -56q-54 95 -149 95q-124 0 -154 -185q69 61 153 61q124 0 202 -103q70 -93 70 -222q0 -120 -75 -212q-80 -97 -197 -97q-58 0 -121 38q-67 40 -107 147q-31 83 -39 182zM324 86
q72 0 120 66q45 60 45 134q0 83 -41 144q-46 71 -124 71q-57 0 -103 -55q-38 -46 -56 -108q9 -92 40 -158q44 -94 119 -94z" />
    <glyph glyph-name="seven" unicode="7" 
d="M55 605v223h489l55 -96q-205 -294 -285 -736h-117q71 405 249 714h-276v-105h-115z" />
    <glyph glyph-name="eight" unicode="8" 
d="M325 -16q-111 0 -192 72q-84 74 -84 183q0 128 111 205q-80 66 -80 167q0 97 75 163q72 63 170 63t170 -63q75 -66 75 -163q0 -100 -80 -167q111 -76 111 -205q0 -109 -82.5 -182t-193.5 -73zM325 728q-53 0 -93 -32q-45 -34 -45 -85t45 -85q40 -32 93 -32t93 32
q45 34 45 85t-45 85q-40 32 -93 32zM325 385q-65 0 -115 -40q-54 -42 -54 -106q0 -63 54 -106q50 -39 115 -39t115 39q54 43 54 106q0 64 -54 106q-50 40 -115 40z" />
    <glyph glyph-name="nine" unicode="9" 
d="M482 295q-70 -56 -158 -56q-118 0 -197 93q-76 90 -76 209q0 120 76 209q79 94 197 94q146 0 219 -151q56 -117 56 -281q0 -172 -55 -285q-72 -149 -226 -149q-150 0 -238 154l94 55q56 -99 144 -99q131 0 164 207zM324 734q-72 0 -120 -62q-45 -57 -45 -131t45 -131
q48 -62 120 -62q61 0 106 47q40 42 55 105q-29 234 -161 234z" />
    <glyph glyph-name="colon" unicode=":" 
d="M400 -5h-149v154h149v-154zM400 338h-149v154h149v-154z" />
    <glyph glyph-name="semicolon" unicode=";" 
d="M335 -129h-69l50 124h-65v154h149v-154zM400 338h-149v154h149v-154z" />
    <glyph glyph-name="less" unicode="&#x3c;" 
d="M168 256l252 253l62 -62l-191 -191l191 -191l-62 -61z" />
    <glyph glyph-name="equal" unicode="=" 
d="M409 -23q-73 0 -124.5 53t-51.5 127v508q0 73 51.5 126.5t124.5 53.5q74 0 125.5 -53.5t51.5 -126.5v-508q0 -74 -51.5 -127t-125.5 -53zM409 735q-28 0 -48 -21t-20 -49v-508q0 -29 20 -50t48 -21q29 0 49 21t20 50v508q0 28 -20 49t-49 21zM64 830h108v-835h-108v835z
" />
    <glyph glyph-name="greater" unicode="&#x3e;" 
d="M482 256l-252 -252l-62 61l191 191l-191 191l62 62z" />
    <glyph glyph-name="question" unicode="?" 
d="M259 132h134v-137h-134v137zM325 735q-77 0 -121 -48q-41 -43 -45 -116h-107q5 116 80.5 195t192.5 79q111 0 192 -76t81 -184q0 -91 -60 -159.5t-159 -91.5v-83h-107l-1 187h54q65 0 115.5 41.5t50.5 105.5q0 65 -52 109q-50 41 -114 41z" />
    <glyph glyph-name="at" unicode="@" 
d="M600 354q0 -58 -25 -95q-30 -44 -90 -44q-42 0 -74 28q-38 -30 -86 -30q-57 0 -97.5 40t-40.5 98v123q0 57 41 97.5t97 40.5t96.5 -40.5t40.5 -97.5v-123q0 -25 2 -31q4 -13 21 -13q24 0 24 24v235q0 77 -54.5 131t-129.5 54q-76 0 -130 -54t-54 -131v-296
q0 -77 54 -130.5t130 -53.5h222v-92h-222q-113 0 -194 80.5t-81 195.5v296q0 115 81 196t194 81q114 0 194.5 -81.5t81.5 -203.5q0 -35 -1 -204zM325 305q18 0 32 13.5t14 32.5v123q0 19 -13.5 32.5t-32.5 13.5t-32.5 -13.5t-13.5 -32.5v-123q0 -19 13.5 -32.5t32.5 -13.5z
" />
    <glyph glyph-name="A" unicode="A" 
d="M261 281h128l-64 341zM274 92v-101h-223v101h73l138 737h125l139 -737h73v-101h-223v101h48l-16 88h-166l-16 -88h48z" />
    <glyph glyph-name="B" unicode="B" 
d="M237 92h89q76 0 121 32q53 39 53 117q0 68 -59 110q-53 38 -128 38h-76v-297zM237 485h76q63 6 106 36q49 35 49 88q0 80 -84 106q-45 15 -147 15v-245zM138 730h-87v101l280 -1q96 0 164 -58q73 -63 73 -163q0 -93 -84 -166q115 -81 115 -202q0 -115 -78 -185
q-75 -66 -191 -66l-82 1h-197v101h87v638z" />
    <glyph glyph-name="C" unicode="C" 
d="M472 830h108v-262h-108q0 167 -147 167q-69 0 -108 -41.5t-39 -111.5v-340q0 -70 39 -113t108 -43q73 0 112 50q35 45 35 121h108q0 -124 -65 -200q-69 -80 -190 -80q-114 0 -184.5 75t-70.5 190v340q0 116 70 189.5t185 73.5q42 0 88 -20q40 -17 59 -39v44z" />
    <glyph glyph-name="D" unicode="D" 
d="M147 101v620h-99v110h242q169 0 248 -132q64 -106 64 -287q0 -160 -60 -275q-76 -146 -224 -146h-270v110h99zM255 721v-620h57q100 0 147 113q35 83 35 198q0 309 -198 309h-41z" />
    <glyph glyph-name="E" unicode="E" 
d="M492 208h107v-217h-548v110h79v620h-79v110h548v-217h-107v107h-254v-254h257v-109h-257v-257h254v107z" />
    <glyph glyph-name="F" unicode="F" 
d="M51 101h79v620h-79v110h548v-217h-107v107h-254v-254h257v-109h-257v-257h76v-110h-263v110z" />
    <glyph glyph-name="G" unicode="G" 
d="M449 830h108v-259h-107q0 68 -38 114q-40 50 -106 50q-60 0 -102 -44.5t-42 -104.5v-348q0 -60 42 -103.5t102 -43.5q59 0 101.5 43.5t42.5 103.5v120h-139v109h285v-109h-39v-120q0 -105 -73 -181t-178 -76t-178.5 76t-73.5 181v348q0 105 73 182t179 77q79 0 143 -47
v32z" />
    <glyph glyph-name="H" unicode="H" 
d="M50 -9v101h75v638h-75v101h246v-101h-71v-267h200v267h-71v101h246v-101h-75v-638h75v-101h-246v101h71v270h-200v-270h71v-101h-246z" />
    <glyph glyph-name="I" unicode="I" 
d="M93 -7v118h177v601h-177v119h464v-119h-173v-601h173v-118h-464z" />
    <glyph glyph-name="J" unicode="J" 
d="M170 285q-1 -61 -1 -51q0 -60 25 -96q30 -43 90 -43q51 0 82 37q28 34 28 85v495h-91v119h293v-119h-87v-495q0 -101 -61 -169q-64 -71 -164 -71q-101 0 -166 70t-64 171l1 67h115z" />
    <glyph glyph-name="K" unicode="K" 
d="M50 83h77v656h-77v92h233v-92h-65v-319l205 319h-79v92h256v-92h-73l-167 -259l170 -397h70v-92h-256v92h82l-128 300l-80 -124v-176h65v-92h-233v92z" />
    <glyph glyph-name="L" unicode="L" 
d="M599 -9h-548v110h79v620h-79v110h263v-110h-76v-620h254v107h107v-217z" />
    <glyph glyph-name="M" unicode="M" 
d="M102 747h-54v84h172l105 -506l105 508h172v-83h-54v-673h54v-83h-192v83h55v514l-99 -478h-82l-99 477v-516h55v-83h-192v83h54v673z" />
    <glyph glyph-name="N" unicode="N" 
d="M295 -9h-245v92h76v656h-76v92h196l186 -552v460h-65v92h233v-92h-76v-743h-93l-213 634v-547h77v-92z" />
    <glyph glyph-name="O" unicode="O" 
d="M50 264v297q0 116 80 200t195 84t195 -84t80 -200v-297q0 -116 -80 -201.5t-195 -85.5t-195 85.5t-80 201.5zM166 561v-297q0 -68 46.5 -118.5t112.5 -50.5t112.5 51t46.5 118v297q0 67 -46.5 116t-112.5 49t-112.5 -49t-46.5 -116z" />
    <glyph glyph-name="P" unicode="P" 
d="M238 721v-254h129q51 -1 87.5 37t36.5 90t-36.5 89.5t-87.5 37.5h-129zM51 101h79v620h-79v110h316q97 0 164.5 -70t67.5 -167q0 -98 -68 -167.5t-165 -69.5h-128v-256h76v-110h-263v110z" />
    <glyph glyph-name="Q" unicode="Q" 
d="M208 347q61 -7 122 -56q38 -30 97 -96v449q0 36 -34.5 65t-74.5 29t-75 -29t-35 -65v-297zM378 99l-129 126q-16 16 -41 20v-72q0 -35 35 -64t75 -29q31 0 60 19zM599 -7q-59 0 -85 5q-30 7 -58 28q-63 -51 -138 -51q-81 0 -145 58q-67 60 -67 140v74h-55v96q3 1 55 4
v297q0 81 67 141q64 58 145 58t146.5 -59t65.5 -140v-471q0 -34 -14 -67q14 -9 26 -12h57v-101z" />
    <glyph glyph-name="R" unicode="R" 
d="M238 721v-254h129q51 -1 87.5 37t36.5 90t-36.5 89.5t-87.5 37.5h-129zM51 101h79v620h-79v110h316q97 0 164.5 -70t67.5 -167q0 -85 -54 -151.5t-137 -81.5l109 -258h79v-109h-150l-154 363h-54v-256h76v-110h-263v110z" />
    <glyph glyph-name="S" unicode="S" 
d="M453 830h108l-1 -234l-107 1q0 58 -48 98t-110 40q-53 0 -94 -35q-44 -37 -44 -89q0 -50 55 -85q48 -31 103 -31q112 0 197 -72q89 -75 89 -184t-83 -185.5t-193 -76.5q-93 0 -168 55v-37h-108l1 259h106q1 -73 48.5 -120.5t120.5 -47.5q66 0 117.5 44.5t51.5 108.5
q0 63 -59 106q-54 40 -120 40q-100 0 -180 63q-85 68 -85 163q0 97 73.5 165.5t171.5 68.5q95 0 158 -42v27z" />
    <glyph glyph-name="T" unicode="T" 
d="M174 101h100v620h-115v-107h-108v217h548v-217h-108v107h-110v-620h103v-110h-310v110z" />
    <glyph glyph-name="U" unicode="U" 
d="M326 -23q-90 0 -152.5 67t-62.5 157v518h-60v110h229v-110h-62v-518q0 -45 31.5 -80t76.5 -35q44 0 75 36q30 33 30 79v518h-61v110h229v-110h-60l-1 -519q0 -90 -60 -156q-63 -67 -152 -67z" />
    <glyph glyph-name="V" unicode="V" 
d="M259 -4l-135 723h-73v110h229v-110h-47l92 -491l91 491h-46v110h229v-110h-73l-134 -723h-133z" />
    <glyph glyph-name="W" unicode="W" 
d="M73 748h-22v83h149v-83h-44l62 -566l61 566h-36v83h168v-83h-40l61 -566l62 566h-43v83h148v-83h-22l-84 -761h-122l-46 397l-46 -397h-122z" />
    <glyph glyph-name="X" unicode="X" 
d="M50 101h70l145 311l-144 309h-71v110h238v-110h-48l85 -181l84 181h-47v110h238v-110h-71l-145 -309l146 -311h70v-110h-238v110h49l-86 184l-86 -184h49v-110h-238v110z" />
    <glyph glyph-name="Y" unicode="Y" 
d="M170 101h100v230l-155 390h-64v110h229v-110h-48l93 -236l93 236h-48v110h229v-110h-65l-156 -399v-221h103v-110h-311v110z" />
    <glyph glyph-name="Z" unicode="Z" 
d="M595 -6h-544v86l407 641h-297v-107h-107v217h540v-98l-400 -630h297v107h103z" />
    <glyph glyph-name="bracketleft" unicode="[" horiz-adv-x="900" 
d="M122 394q178 157 328 441q150 -284 328 -441q-178 -157 -328 -441q-150 284 -328 441z" />
    <glyph glyph-name="backslash" unicode="\" horiz-adv-x="2119" 
d="M2036 884q-12 -2 -23.5 -15t-11.5 -25v-160h-36v200q0 12 -8 19l22 27q20 -7 22 -35q27 35 35 35v-46zM1948 858q0 -64 -52 -78q0 -20 8 -37q10 -22 27 -22q6 0 16 5v-41q-8 -3 -20 -3q-70 0 -70 123v28q0 97 46 97q45 0 45 -72zM1839 684h-37v200q0 10 -9 10q-5 0 -9 -6
v-204h-37v200q0 14 -7 19l23 27q10 -2 18 -17q13 17 28 17q30 0 30 -43v-203zM1727 684h-36v198q0 12 -9 12q-6 -3 -11 -8v-202h-36v317h37v-85q12 15 26 15q29 0 29 -47v-200zM1619 805q0 -124 -44 -124q-47 0 -47 124q0 125 45 125q46 0 46 -125zM1519 684h-68v317h43
v-275h25v-42zM1885 285h-36v197q0 13 -9 13q-6 -2 -10 -7v-203h-36v198q0 12 -9 12q-6 -2 -9 -7v-203h-37v206q0 10 -6 15l21 26q16 -5 20 -19q12 19 28 19q17 0 26 -18q14 18 29 18q28 0 28 -45v-202zM1391 713l-21 -32q-15 4 -20 22q-12 -21 -24 -21q-36 0 -36 92v44
q0 112 56 112v71h36v-258q0 -22 9 -30zM1280 708l-28 -26q-20 6 -20 32v287h36v-268q0 -20 12 -25zM1721 407q0 -124 -45 -124q-47 0 -47 124t45 124q47 0 47 -124zM2069 -113h-36v197q0 13 -9 13q-6 -3 -10 -8v-202h-36v198q0 12 -9 12q-6 -3 -10 -8v-202h-36v206
q0 10 -6 15l21 26q15 -5 19 -19q13 19 29 19t25 -18q14 18 29 18q29 0 29 -45v-202zM1619 289q-9 -7 -18 -7q-51 0 -51 111v35q0 104 52 104q8 0 17 -3v-37q-7 3 -9 3q-23 0 -23 -67v-37q0 -71 20 -71q8 0 12 5v-36zM1213 805q0 -124 -44 -124q-47 0 -47 124q0 125 45 125
q46 0 46 -125zM1489 310l-28 -27q-20 6 -20 33v286h36v-267q0 -20 12 -25zM1113 884q-13 -2 -24 -15t-11 -25v-160h-37v200q0 12 -8 19l22 27q20 -7 23 -35q26 35 35 35v-46zM1904 9q0 -124 -44 -124q-48 0 -48 124t46 124t46 -124zM1541 306q0 -23 -23 -23q-24 0 -24 23
t24 23q23 0 23 -23zM1423 407q0 -124 -45 -124q-47 0 -47 124t45 124q47 0 47 -124zM1029 713l-21 -31q-12 2 -20 21q-10 -21 -25 -21q-36 0 -36 108v30q0 110 75 110h17v-182q0 -28 10 -35zM1803 -109q-10 -7 -19 -7q-50 0 -50 110v36q0 104 51 104q8 0 17 -4v-37
q-7 3 -9 3q-22 0 -22 -66v-37q0 -71 19 -71q9 0 13 5v-36zM906 684h-42v133h-22v-133h-43v317h43v-143h22v143h42v-317zM1325 315l-21 -32q-11 3 -20 21q-10 -21 -25 -21q-35 0 -35 109v29q0 110 74 110h18v-181q0 -28 9 -35zM1670 -60q0 -55 -42 -55q-14 0 -25 6v37
q6 -8 15 -8q18 0 18 19q0 24 -16.5 69.5t-16.5 69.5q0 56 38 56q11 0 25 -8v-34q-7 6 -14 6q-14 0 -14 -19q0 -23 16 -68.5t16 -70.5zM1725 -92q0 -23 -24 -23q-23 0 -23 23t23 23q24 0 24 -23zM1593 -108q-10 -7 -19 -7q-35 0 -35 42v173h-19v11q13 13 45 60h10v-40h18v-31
h-18v-167q0 -13 10 -13q2 0 8 3v-31zM739 774q0 -88 -81 -93v44q36 4 36 50q0 49 -36 50v35h3q32 -1 32 59q0 41 -24 41q-5 0 -11 -2v40q9 5 20 5q30 0 46 -29q13 -23 13 -55q0 -54 -30 -73q32 -23 32 -72zM1193 459q0 -35 -14 -69q-18 -42 -48 -42q-21 0 -27 24
q-13 -24 -34 -24q-40 0 -40 68q0 32 14 63q17 38 44 38q19 0 28 -20l2 13h32q-6 -28 -13 -56q-8 -34 -8 -56q0 -4 3 -10l4 -3q15 0 23 33q6 23 6 43q0 37 -15 60q-19 28 -53 28q-44 0 -69 -42q-21 -35 -21 -82q0 -45 19 -77q23 -39 65 -39q37 0 73 41l13 -30
q-40 -47 -88 -47q-54 0 -84 52q-25 42 -25 101t27 105q32 54 87 54q48 0 75 -41q24 -35 24 -85zM1506 -113h-37v200q0 10 -9 10q-5 0 -9 -6v-204h-36v201q0 14 -8 19l23 27q11 -3 19 -18q13 18 28 18q29 0 29 -44v-203zM644 839q0 -157 -54 -157q-60 0 -60 159q0 162 57 162
t57 -164zM1399 9q0 -124 -45 -124q-47 0 -47 124t45 124q47 0 47 -124zM955 486q-12 -2 -23.5 -15t-11.5 -26v-160h-36v201q0 12 -9 19l22 26q20 -7 23 -34q26 34 35 34v-45zM515 839q0 -157 -54 -157q-59 0 -59 159q0 162 56 162q57 0 57 -164zM1297 171q-14 -1 -17 -15
v-25h17v-31h-17v-194q0 -65 -52 -65v40q16 -1 16 31v188h-16v31h15q0 77 49 75h5v-35zM867 460q0 -65 -52 -78q0 -20 7 -37q10 -22 28 -22q5 0 16 4v-41q-8 -3 -20 -3q-70 0 -70 123v29q0 96 46 96q45 0 45 -71zM1218 -60q0 -55 -42 -55q-14 0 -25 6v37q6 -8 15 -8
q18 0 18 19q0 24 -16 69.5t-16 69.5q0 56 38 56q10 0 24 -8v-34q-7 6 -13 6q-15 0 -15 -19q0 -23 16 -68.5t16 -70.5zM386 684h-88q41 145 41 235q0 36 -21 36q-11 0 -20 -10v41q19 17 36 17q49 0 49 -77q0 -62 -31 -201h34v-41zM1145 -84l-21 -32q-15 4 -20 22
q-12 -21 -24 -21q-36 0 -36 92v44q0 113 56 113v70h36v-258q0 -22 9 -30zM757 285h-36v200q0 11 -9 11q-6 0 -10 -6v-205h-36v201q0 14 -7 19l23 27q10 -3 18 -17q13 17 28 17q29 0 29 -43v-204zM1034 -88l-28 -27q-20 6 -20 32v287h36v-267q0 -20 12 -25zM646 285h-36v199
q0 12 -9 12q-6 -3 -11 -8v-203h-36v317h37v-85q11 15 25 15q30 0 30 -46v-201zM277 827q0 -52 -22 -95q-28 -52 -76 -52q-47 0 -75 52q-22 43 -22 95t22 95q28 52 75 52q48 0 76 -52q22 -43 22 -95zM968 9q0 -124 -45 -124q-47 0 -47 124t45 124q47 0 47 -124zM538 407
q0 -124 -44 -124q-48 0 -48 124t46 124t46 -124zM437 285h-67v317h42v-275h25v-42zM867 88q-13 -3 -24 -16t-11 -25v-160h-37v200q0 12 -8 19l22 27q20 -7 23 -35q26 35 35 35v-45zM783 -84l-21 -31q-12 3 -20 21q-10 -21 -25 -21q-36 0 -36 109v29q0 110 75 110h17v-182
q0 -27 10 -35zM347 285h-42v134h-23v-134h-42v317h42v-142h23v142h42v-317zM661 -113h-36v198q0 12 -9 12q-6 -2 -11 -7v-203h-36v317h37v-85q12 15 26 15q29 0 29 -46v-201zM556 -92q0 -23 -24 -23q-23 0 -23 23t23 23q24 0 24 -23zM501 131l-28 -246h-30l-14 156l-14 -156
h-29l-29 246h36l8 -167l11 167h33l12 -165l8 165h36zM348 131l-28 -246h-30l-14 156l-15 -156h-29l-29 246h37l7 -167l12 167h33l12 -165l8 165h36zM195 131l-29 -246h-29l-14 156l-15 -156h-29l-29 246h37l7 -167l12 167h33l12 -165l8 165h36zM1912 858q0 23 -8 34
q-9 -17 -9 -40v-31q17 6 17 37zM1583 805q0 76 -9 83q-9 -7 -9 -79q0 -77 9 -86q9 10 9 82zM1346 721v165q-19 -6 -19 -56v-51q0 -62 13 -62q4 0 6 4zM1684 406q0 77 -9 83q-9 -6 -9 -78q0 -78 9 -86q9 10 9 81zM1177 805q0 76 -9 83q-9 -7 -9 -79q0 -77 9 -86q9 10 9 82z
M1867 8q0 77 -8 83q-9 -7 -9 -79q0 -77 9 -85q8 10 8 81zM1386 406q0 77 -9 83q-9 -6 -9 -78q0 -78 9 -86q9 10 9 81zM983 720v164q-19 -6 -19 -62v-44q0 -61 13 -61q3 0 6 3zM1279 322v164q-18 -6 -18 -62v-45q0 -60 12 -60q4 0 6 3zM1106 462q0 20 -12 20t-21 -29
q-7 -23 -7 -41q0 -28 12 -28q11 0 20 33q8 27 8 45zM599 837q0 97 -12 117q-12 -16 -12 -106q0 -102 13 -118q11 18 11 107zM1362 8q0 77 -9 83q-9 -7 -9 -79q0 -77 9 -85q9 10 9 81zM471 837q0 97 -13 117q-12 -16 -12 -106q0 -102 13 -118q12 18 12 107zM831 459
q0 24 -8 35q-10 -17 -10 -40v-32q18 7 18 37zM1100 -76v165q-19 -6 -19 -56v-50q0 -62 13 -62q4 0 6 3zM250 827q0 40 -15 73q-20 42 -56 42q-35 0 -55 -42q-16 -33 -16 -73t16 -74q20 -42 55 -42q36 0 56 42q15 34 15 74zM931 8q0 77 -9 83q-9 -7 -9 -79q0 -77 9 -85
q9 10 9 81zM501 406q0 77 -8 83q-9 -6 -9 -78q0 -78 9 -86q8 10 8 81zM737 -77v165q-19 -6 -19 -62v-45q0 -60 13 -60q3 0 6 2zM232 845h-32q-3 30 -19 30q-20 0 -20 -49q0 -47 22 -47q14 0 17 28h31q-8 -69 -49 -69q-29 0 -44 32q-13 25 -13 57t11 56q15 33 43 33
q45 0 53 -71z" />
    <glyph glyph-name="bracketright" unicode="]" horiz-adv-x="900" 
d="M690 470q77 0 132 -55.5t55 -132.5t-55 -132t-132 -55q-70 0 -123.5 46.5t-62.5 116.5h-26q4 -177 76 -292h-208q72 115 76 292h-26q-9 -70 -62.5 -116.5t-123.5 -46.5q-77 0 -132 55t-55 132t55 132.5t132 55.5q74 0 128 -51l18 31q-47 26 -75 73t-28 100q0 81 58 139
t139 58t139 -58t58 -139q0 -53 -28 -100t-75 -73l18 -31q54 51 128 51z" />
    <glyph glyph-name="asciicircum" unicode="^" horiz-adv-x="1533" 
d="M1220 474q51 52 51 110q0 7 -3.5 20.5t-3.5 19.5q0 9 8 9q13 0 16 -11v-21q0 -42 -15 -77q-19 -44 -53 -50zM1478 -77l-9 -12l1 -16q-14 3 -17 11q-1 4 -1 20q-2 3 -8 7q0 12 7 12h16q3 0 11 -8v-14zM1281 65q-8 2 -8 9q0 8 6 15q10 0 16 -6q1 -4 1 -8q0 -8 -15 -10z
M1244 75q0 9 8 14q12 0 12 -15v-9q-4 -7 -10 -7q-10 0 -10 17zM1288 -25q0 -7 -7 -12q-19 0 -19 11q1 3 3 7q-13 18 -13 29q0 9 6 18q0 3 -1.5 8.5t-1.5 8.5l5 8q11 -3 12.5 -5.5t1.5 -14.5t7 -30.5t7 -27.5zM664 -89q29 -20 62 -20q34 0 87 23l85 38q-18 -26 -71 -48
q-49 -20 -83 -20q-5 -8 -27 -12q-16 -2 -32 -5q-23 -6 -34 -6q-21 0 -53 27.5t-44 27.5q-9 0 -11 -19q-1 -13 -3 -27l-5 -1q-5 3 -12 12q0 12 6 33t6 32q0 12 -8.5 28.5t-19.5 16.5q-18 -5 -39 -61q-26 -67 -33 -77q5 59 44 138l-4 4q-7 -6 -12 -19q-8 -19 -9 -21
q-4 -6 -20.5 -19t-16.5 -25l4 -1q3 1 4 1q8 0 8 -4l-4 -6l-9 -9l-3 12q-36 -10 -36 -29q0 -10 29 -10v-5l-39 -1q-57 -1 -57 26q0 8 5 17l-3 2q-7 -3 -27 -27q-17 -20 -32 -20q-18 0 -32.5 25.5t-20.5 25.5q-5 0 -5 -6q0 -22 20 -42q-52 0 -169 -2v1148h369q-6 -20 -19 -61
q-16 -49 -23 -49q-6 0 -18 6q-16 -8 -16 -27q0 -15 19.5 -60t19.5 -66q0 -49 31 -49q0 -24 9 -24q19 0 53 7q38 7 50 15l-15 10q-7 6 -7 16q-1 1 35 1q7 0 75 -21q10 -3 34 -26q19 -18 58 -18q33 0 103 40t100 40q2 -1 8 -24l72 -9l18 1q20 14 51 14q3 0 17 -5t23 -5
q46 0 46 57q0 65 -40 121q-4 6 -1 20q-21 10 -42 59q-3 3 -10 5l-7 7q0 9 -5 25h247q-4 -8 -24 -120.5t-23 -134.5l5 -12q-2 1 22 1q33 0 43 -69q-12 16 -22 16q-7 0 -20.5 -4t-20.5 -4q3 10 15.5 18.5t12.5 11.5q0 16 -10 16q-23 0 -39 -9q-21 -12 -21 -32t15 -20q4 0 9 2
l-15 -29l4 -8q17 -10 17 -16t-21 -21q16 -5 16 -14q0 -5 -15 -17t-15 -24q0 -19 12 -19q6 0 18 12q8 -4 8 -9l-2 -5q-27 -15 -27 -45q0 -9 2.5 -27t3.5 -26q0 -13 4 -13q19 0 51 75q28 64 33 99l6 -1q-7 -61 -38 -118q-10 -19 -53 -82q-27 -39 -27 -62q0 -33 72 -94
q34 -28 101 -82q25 -21 56 -39l36 -18q29 -17 29 -26q0 -18 -16 -18q19 0 -21 20t-54 20h-4l-2 -9h-5q-3 13 -16 33.5t-25 20.5l-6 -5q-11 -18 -11 -68t-8 -70l2 -8h2q1 0 12.5 3.5t23 3.5t11.5 16q0 8 -7 11q-8 -7 -14 -12q-12 0 -12 8q0 46 19 89q5 -12 5 -46
q0 -21 10 -21q6 0 18 1.5t18 1.5q3 0 7.5 13t8.5 13q7 0 11.5 -15.5t16.5 -17.5q-4 -27 -21 -27q-5 0 -10 8l-6 8l-6 1l-8 -6q-4 -8 -17 -17q2 -24 17 -24q6 0 18 9t18 9q7 0 15 -7v-12h-15q-23 -14 -26 -14q-4 0 -10 3q-10 -4 -10 -10q0 -5 9 -9q5 0 14 9q32 -9 32 -24
q-4 -13 -21 -13q-6 0 -6 -2q0 -16 29 -16q10 0 33 -16q-23 -14 -53 -14q-20 0 -43 7l-5 7q6 5 13 18l-4 2q-9 -5 -26 -14l-1 -6q0 -3 15 -11h-47v16q0 23 -17 23q-7 0 -7 -8l2 -15h-12q-8 1 -11 -3q-2 -4 1 -13h-37q19 13 19 29q-3 3 -9 3q-5 0 -15.5 -6t-15.5 -6
q-11 0 -11 13q0 8 20 13.5t22 9.5q13 13 32 41q17 0 17 -6q0 -10 -14.5 -23.5t-15.5 -16.5l9 -5q3 1 12 6.5t15 5.5q7 0 17.5 -13t18.5 -13q14 0 19 13q-28 5 -55 33q4 4 8 16q-12 17 -12 38q0 12 4.5 34.5t4.5 34.5q0 105 -32 105q-4 0 -11.5 -2t-10.5 -2q-8 0 -10 7
q-1 3 -1 7t1 9l1 14q0 4 -3 7q-13 12 -41 34v-4q0 -18 12.5 -52t12.5 -51q0 -59 -4 -88q6 -8 11 -14q0 -12 -12 -12h-13q0 14 1 41.5t1 41.5q0 82 -35 122q-18 -28 -53 -69q-42 -49 -60 -59q-2 -6 -13.5 -21t-11.5 -22q0 -5 1 -7q30 17 59 60q16 24 48 71
q-24 -108 -143 -173q-2 -1 -6 -1t-11.5 4t-11.5 4q-4 -2 -5.5 -14t-6.5 -14q-7 -5 -23 -11q-85 -26 -115 -25q-9 -10 -67 -23q-51 -12 -73 -12q-6 0 -12 8zM451 714q-2 0 -12 3l7 7l2 6q6 -4 10 -1q7 2 10 2q6 0 16 -13q-6 0 -17 -2t-16 -2zM1040 -88l-4 4q26 24 76 72
q44 43 44 90q0 4 -6 36q6 5 16 19q-1 8 -1 15q0 18 13 44q8 -26 8 -53q0 -113 -146 -227zM1102 41q0 13 10 13q14 0 14 -8q-4 -7 -8 -12q-9 0 -16 7zM1202 -87q0 24 -8 24q-10 0 -18 -15q-10 -19 -13 -21l3 -4l11 -3q3 4 12 12q7 0 7 -16q-9 -6 -17 -19q4 -6 14 -6v-5
q-28 0 -129 -1q26 21 78 64q40 36 56 81q7 6 12 6q3 0 5 -2q3 -8 1 -19l-1 -18v-5h3q2 0 7 -2.5t7 -2.5q2 1 4 1q4 0 3 -3q-7 -26 -11 -29zM892 710q-19 0 -63 -22.5t-44 -39.5q0 -8 5.5 -20t5.5 -15q0 -5 -4 -10q7 -5 38 -40q17 -19 55 -19t76 10q55 16 55 41q0 20 -21 20
q-9 0 -33 -34q-3 5 -11.5 6.5t-8.5 6.5q0 2 12.5 19t12.5 25t-7 12q-19 -41 -40 -41q-25 0 -39 41q-19 -7 -19 -20l3 -10q1 -2 17 -8q12 -5 12 -13q0 -16 -11 -16t-18 4l-2 1q-8 -7 -20 -16l9 30q0 7 -6 10q-18 8 -23 12t-15 18q64 43 94 43q6 0 21 -3.5t22 -2.5q24 3 21 3
q17 0 50 -43l12 4q2 9 2 15q0 31 -49 40l-70 4l-9 4.5t-10 3.5zM1166 566q0 6 2.5 19t2.5 19q0 24 -11 52q-14 34 -34 34q4 0 -40 -11q-7 -2 -16 0q-13 1 -16 1q-8 0 -8 -14q0 -8 7 -21t7 -21q0 -1 -8 -30q-6 -46 -40 -62q-17 -8 -81 -16q-4 -1 -8.5 -8.5t-11.5 -7.5
q-12 0 -37 7.5t-34.5 8.5t-26.5 14q-21 16 -25 18q-22 0 -22 -15q0 -8 6.5 -16l6.5 -8q0 -6 -4 -10q11 -35 12.5 -43t1.5 -44q0 -24 18 -24q21 0 21 20q0 7 -9.5 22.5t-9.5 24.5l1 10q36 -36 36 -46q0 -15 -6 -30q-9 -19 -22 -19q-3 0 -13 4t-15 4q-17 0 -38.5 -16.5
t-27.5 -16.5q-4 0 -12 2t-12 2l-7 -2q11 -10 11 -22q0 -9 -8.5 -27t-8.5 -24q0 -17 25 -17q18 0 30 9q-1 3 -7 19q-4 11 -4 18q0 18 13 31t31 13q8 0 12 -8t9 -8l6 5l2 4l8 7q13 -3 28 -16l24 -20l7 1q13 17 24 15q3 1 12.5 12.5t14.5 11.5q16 0 36 -30.5t20 -49.5
q0 -29 -31 -29q0 -7 11 -19.5t11 -16.5q0 -7 -9 -10q-14 -3 -15 -5q-5 -10 -5 -16q0 -20 16 -20q10 0 33.5 21.5t23.5 31.5t-20 36q7 -1 11 -1q9 0 19 12t13 12t7.5 -2t6.5 -2q7 0 9 13q1 12 0 24q-1 11 -2 18q0 8 3 18q12 -7 14 -26.5t9 -19.5q28 0 44 30q-27 7 -27 13l3 9
q2 2 5 2q2 -1 9 -6q10 8 10 20q0 23 -28 23q0 14 10 14q4 0 13 -3.5t14 -3.5q16 0 31 36q14 31 14 49q0 13 -8 33t-8 22q0 3 4.5 9t4.5 9q-3 6 -8 20zM1081 246h-2l-2 -5l6 -6l3 9q-1 2 -5 2zM1355 -49q0 -10 9 -10q11 0 11 16l-2 7q-3 4 -6 4q-12 0 -12 -17zM1043 253
q-8 -5 -8 -12l5 -10q7 4 7 10l4 7zM1067 225l-6 -13h8q3 1 3 8l-1 7zM647 659q-3 0 -6 -5q11 -9 11 -48l3 -2q2 4 2 10q0 35 -10 45zM1060 182q-5 -1 -8 -8l5 -2l5 5zM747 582q0 66 -36 66q-40 0 -40 -59q0 7 1 -23v-21q0 -8 -2 -23.5t-2 -23.5q0 -2 2 -7.5t2 -8.5
q-17 -33 -43 -61q-8 -9 -8 -16q0 -14 9 -14q2 0 7 10t11 10q2 0 24.5 -22t38.5 -25q3 -3 9 -3q11 0 38 25t27 36t-20.5 58t-19.5 71q2 41 2 31zM879 291q-5 0 -5 -11l9 -4q7 0 19 -5l4 8q-25 12 -27 12zM496 682q-61 0 -61 -29l5 -8q3 -3 6 -3q4 0 22 13q9 7 18 7
q23 -4 18 -4q15 0 15 9q0 15 -23 15zM608 630q0 -35 -36 -35q2 3 14.5 36t12.5 36q0 6 -8 13t-15 7q-21 0 -21 -17q0 -6 11 -19q14 -16 15 -19q-8 -3 -20.5 -23t-31.5 -20q-16 0 -24 14.5t-14 28.5l-11 -3v-3q0 -9 12.5 -23t12.5 -21q0 -10 -18 -12q-23 -3 -26 -5v-13
q-4 -1 -7 -1q-15 0 -19 18q-1 12 -3 29q-2 8 -5 8q-11 0 -11 -36q0 -35 34 -44q11 -4 62 -4q74 0 118 78v3q1 10 -5.5 18.5t-16.5 8.5zM1014 118q-8 0 -8 -11l4 -2q14 0 14 12zM812 293h-3q-9 -9 -9 -17l5 -9l3 -1q3 0 9 12zM755 307q-8 0 -8 -15q0 -13 21 -21l5 3l1 5
q0 7 -6.5 17.5t-12.5 10.5zM876 112q46 2 46 71q0 11 -3 20q2 0 5.5 -1.5t5.5 -1.5q2 2 10 12q-2 15 -15.5 26.5t-29.5 11.5q-46 0 -138 -8.5t-138 -8.5q-6 0 -15.5 4.5t-14.5 4.5q-7 -9 -15 -16q-6 0 -13 4q-2 -2 -7.5 -11.5t-7.5 -9.5l-2 1q-27 6 -27 74q0 7 2 14
q6 2 17 7q28 42 52 42q14 0 13 -7q-5 -11 -10 -14q-19 -7 -19 -22q4 -6 8 -6h4q47 54 56 54q4 0 12 -2t11 -2q7 0 7 10q0 19 -21 19q-4 0 -11.5 -3t-11.5 -3q-11 0 -18 11t-7 22q0 36 42 65q8 13 8 53q0 8 -3 31q-1 20 1 32l-4 2q-6 -4 -18 -33t-26 -41q-26 -22 -73 -22
q-16 0 -46 11t-40 11q-4 0 -9 -3l-8 -3q-44 23 -60 60h-4l-1 -16q-1 -24 4 -70q6 -50 6 -70q0 -9 14 -12t14 -6l-6 -12q-15 -7 -15 -21q0 -10 10 -30.5t18 -20.5q5 0 12.5 7t8.5 7q4 0 7 -2q22 -27 56 -91q-19 -5 -19 -27q0 -20 33 -59l10 -4q7 4 7 11l-1 5q-3 2 -16 2v11
q4 7 10 7q3 0 9.5 -6l6.5 -6q6 5 23 29q13 19 29 19q7 0 7 -17q-27 -11 -27 -34l3 -12q7 -5 12 -5q4 0 6 2l-3 12v9l22 11q9 7 9 21q17 0 18 -7q-15 -32 -40 -99l2 -9l8 1q5 15 3 23q20 0 51 40q19 -1 31.5 14t19.5 15q5 0 13.5 -5.5t13.5 -5.5q21 0 36 7l30 19
q7 -2 14.5 -15.5t12.5 -18.5q-5 0 -12 2.5t-11 2.5l-6 -3q-7 -24 -23 -67q-1 -2 -21 -9v-7q-2 -17 18 -51q5 3 9 3q12 0 17 -14l7 5q2 4 15 25t13 22q0 13 -38 21q3 4 6 27q3 17 16 17q11 0 14 -19q4 -23 6 -25l13 -4q13 7 12 23q-1 9 -1 14q0 7 10 7q8 -3 9 -16zM653 320
q-7 -3 -17 -34l3 -3q8 11 19 35zM849 68q0 -15 11 -15q8 0 8 12l5 9q0 10 -12 10t-12 -16zM885 27l-2 1q-2 0 -18 -8l3 -8l10 4q4 6 10 8zM325 511q0 3 -5 14.5t-5 17.5q0 3 8.5 24.5t8.5 33.5q0 7 -13.5 30.5t-18.5 23.5q-27 0 -27 -42q0 -19 44 -109l7 -4zM855 39l-4 1
q-13 0 -13 -15l1 -2q0 -3 3 -3q4 0 10.5 3.5t6.5 7.5zM827 4q-9 0 -9 -14q0 -5 9 -5h7q5 3 5 7q0 6 -12 12zM674 116h6q16 0 16 15l-2 8q-2 1 -4 1q-18 0 -18 -18q0 -3 2 -6zM746 144q-22 1 -26 -13q-1 -2 -1 -33q-7 9 -22 17l-6 -3q-1 -4 -1 -7q0 -17 15 -27q-8 -7 -14 -16
q9 -46 25 -46h3l2 6q-8 9 -8 21q0 25 22 56t22 34l-3 10zM748 26l-7 5q-14 -5 -14 -29q0 -6 9 -9q9 5 17 20zM658 105l-5 2q-4 -1 -13 -8v-9q4 -8 9 -8t10 6l1 9zM670 70l-2 5q-16 -3 -16 -17q0 -10 12 -10l6 3v19zM432 296l-7 5q-13 -2 -13 -19q0 -13 12 -13t11 19z
M451 230q11 0 11 19l-5 9h-3q-12 0 -12 -15q0 -13 9 -13zM619 74l4 10q0 3 -3 6q-22 -7 -22 -32q0 -28 17 -28q8 0 7 20q-2 12 -3 24zM639 8l1 -1l6 -3q16 14 17 16q0 2 -1 4q-23 -1 -23 -16zM602 -71q-11 0 -11 -10q0 -17 51 -38l9 -1l7 4l1 4q0 11 -22.5 26t-34.5 15z
M391 23v-3q4 2 22 13q15 10 15 17l-4 9l-4 1q-10 0 -19.5 -13.5t-9.5 -23.5zM402 -4l2 -10q4 -3 16.5 5.5t12.5 14.5q0 2 -1 3q-1 6 -7 6q-15 0 -23 -19zM377 51h-2q-5 0 -14 -18q0 -12 10 -12q11 5 11 19zM401 -31q-7 4 -13 4q-16 0 -37 -36t-21 -55q0 -4 3 -4q-7 0 23 8
q0 13 16 34q2 21 17 27q11 5 15 12zM367 7q-58 0 -93 -103l5 -2q9 4 25.5 26t29.5 29q2 4 2 9t-2 12l8 -1q27 0 33 26zM257 16q2 -21 10 -21q10 0 10 13q0 12 -11 12zM331 -72q-9 0 -9 -13l4 -2q11 6 11 10l-1 2zM227 -17l-9 -6v-4q0 -12 14 -12q11 9 11 15q0 7 -16 7z
M248 -62q0 -2 14 -5q10 0 10 9q-2 5 -8 5q-3 0 -9.5 -3.5t-6.5 -5.5zM248 -108l-6 -2q1 -12 9 -12q9 0 9 8q-3 6 -12 6zM141 -95l-4 -1q-6 -3 -6 -13q0 -15 11 -15q12 0 12 14q0 15 -13 15zM766 64q0 13 11 13q14 0 14 -19q0 -11 -11 -11q-14 0 -14 17zM406 335
q-6 6 -6.5 19t-3.5 15l5 5q14 -14 14 -24l-3 -8zM1026 195q-2 -3 -2 -5v-3q0 -2 2 -5l8 2q4 2 3 6q-1 1 -3 5h-8z" />
    <glyph glyph-name="underscore" unicode="_" 
d="M50 564q0 114 80 197.5t195 83.5t195 -83.5t80 -197.5v-304q0 -114 -80.5 -198.5t-194.5 -84.5t-194.5 84.5t-80.5 198.5v304zM369 83q107 41 129 146l-129 127v-273zM369 482l132 -129v211q0 57 -35 104.5t-97 70.5v-257zM279 482v256q-62 -23 -96 -70.5t-34 -103.5
v-209zM152 230q21 -105 127 -147v273z" />
    <glyph glyph-name="grave" unicode="`" 
d="M428 865l-229 61l23 84l229 -62z" />
    <glyph glyph-name="a" unicode="a" 
d="M261 281h128l-64 341zM274 92v-101h-223v101h73l138 737h125l139 -737h73v-101h-223v101h48l-16 88h-166l-16 -88h48z" />
    <glyph glyph-name="b" unicode="b" 
d="M237 92h89q76 0 121 32q53 39 53 117q0 68 -59 110q-53 38 -128 38h-76v-297zM237 485h76q63 6 106 36q49 35 49 88q0 80 -84 106q-45 15 -147 15v-245zM138 730h-87v101l280 -1q96 0 164 -58q73 -63 73 -163q0 -93 -84 -166q115 -81 115 -202q0 -115 -78 -185
q-75 -66 -191 -66l-82 1h-197v101h87v638z" />
    <glyph glyph-name="c" unicode="c" 
d="M472 830h108v-262h-108q0 167 -147 167q-69 0 -108 -41.5t-39 -111.5v-340q0 -70 39 -113t108 -43q73 0 112 50q35 45 35 121h108q0 -124 -65 -200q-69 -80 -190 -80q-114 0 -184.5 75t-70.5 190v340q0 116 70 189.5t185 73.5q42 0 88 -20q40 -17 59 -39v44z" />
    <glyph glyph-name="d" unicode="d" 
d="M147 101v620h-99v110h242q169 0 248 -132q64 -106 64 -287q0 -160 -60 -275q-76 -146 -224 -146h-270v110h99zM255 721v-620h57q100 0 147 113q35 83 35 198q0 309 -198 309h-41z" />
    <glyph glyph-name="e" unicode="e" 
d="M492 208h107v-217h-548v110h79v620h-79v110h548v-217h-107v107h-254v-254h257v-109h-257v-257h254v107z" />
    <glyph glyph-name="f" unicode="f" 
d="M51 101h79v620h-79v110h548v-217h-107v107h-254v-254h257v-109h-257v-257h76v-110h-263v110z" />
    <glyph glyph-name="g" unicode="g" 
d="M449 830h108v-259h-107q0 68 -38 114q-40 50 -106 50q-60 0 -102 -44.5t-42 -104.5v-348q0 -60 42 -103.5t102 -43.5q59 0 101.5 43.5t42.5 103.5v120h-139v109h285v-109h-39v-120q0 -105 -73 -181t-178 -76t-178.5 76t-73.5 181v348q0 105 73 182t179 77q79 0 143 -47
v32z" />
    <glyph glyph-name="h" unicode="h" 
d="M50 -9v101h75v638h-75v101h246v-101h-71v-267h200v267h-71v101h246v-101h-75v-638h75v-101h-246v101h71v270h-200v-270h71v-101h-246z" />
    <glyph glyph-name="i" unicode="i" 
d="M93 -7v118h177v601h-177v119h464v-119h-173v-601h173v-118h-464z" />
    <glyph glyph-name="j" unicode="j" 
d="M170 285q-1 -61 -1 -51q0 -60 25 -96q30 -43 90 -43q51 0 82 37q28 34 28 85v495h-91v119h293v-119h-87v-495q0 -101 -61 -169q-64 -71 -164 -71q-101 0 -166 70t-64 171l1 67h115z" />
    <glyph glyph-name="k" unicode="k" 
d="M50 83h77v656h-77v92h233v-92h-65v-319l205 319h-79v92h256v-92h-73l-167 -259l170 -397h70v-92h-256v92h82l-128 300l-80 -124v-176h65v-92h-233v92z" />
    <glyph glyph-name="l" unicode="l" 
d="M599 -9h-548v110h79v620h-79v110h263v-110h-76v-620h254v107h107v-217z" />
    <glyph glyph-name="m" unicode="m" 
d="M102 747h-54v84h172l105 -506l105 508h172v-83h-54v-673h54v-83h-192v83h55v514l-99 -478h-82l-99 477v-516h55v-83h-192v83h54v673z" />
    <glyph glyph-name="n" unicode="n" 
d="M295 -9h-245v92h76v656h-76v92h196l186 -552v460h-65v92h233v-92h-76v-743h-93l-213 634v-547h77v-92z" />
    <glyph glyph-name="o" unicode="o" 
d="M50 264v297q0 116 80 200t195 84t195 -84t80 -200v-297q0 -116 -80 -201.5t-195 -85.5t-195 85.5t-80 201.5zM166 561v-297q0 -68 46.5 -118.5t112.5 -50.5t112.5 51t46.5 118v297q0 67 -46.5 116t-112.5 49t-112.5 -49t-46.5 -116z" />
    <glyph glyph-name="p" unicode="p" 
d="M238 721v-254h129q51 -1 87.5 37t36.5 90t-36.5 89.5t-87.5 37.5h-129zM51 101h79v620h-79v110h316q97 0 164.5 -70t67.5 -167q0 -98 -68 -167.5t-165 -69.5h-128v-256h76v-110h-263v110z" />
    <glyph glyph-name="q" unicode="q" 
d="M208 347q61 -7 122 -56q38 -30 97 -96v449q0 36 -34.5 65t-74.5 29t-75 -29t-35 -65v-297zM378 99l-129 126q-16 16 -41 20v-72q0 -35 35 -64t75 -29q31 0 60 19zM599 -7q-59 0 -85 5q-30 7 -58 28q-63 -51 -138 -51q-81 0 -145 58q-67 60 -67 140v74h-55v96q3 1 55 4
v297q0 81 67 141q64 58 145 58t146.5 -59t65.5 -140v-471q0 -34 -14 -67q14 -9 26 -12h57v-101z" />
    <glyph glyph-name="r" unicode="r" 
d="M238 721v-254h129q51 -1 87.5 37t36.5 90t-36.5 89.5t-87.5 37.5h-129zM51 101h79v620h-79v110h316q97 0 164.5 -70t67.5 -167q0 -85 -54 -151.5t-137 -81.5l109 -258h79v-109h-150l-154 363h-54v-256h76v-110h-263v110z" />
    <glyph glyph-name="s" unicode="s" 
d="M453 830h108l-1 -234l-107 1q0 58 -48 98t-110 40q-53 0 -94 -35q-44 -37 -44 -89q0 -50 55 -85q48 -31 103 -31q112 0 197 -72q89 -75 89 -184t-83 -185.5t-193 -76.5q-93 0 -168 55v-37h-108l1 259h106q1 -73 48.5 -120.5t120.5 -47.5q66 0 117.5 44.5t51.5 108.5
q0 63 -59 106q-54 40 -120 40q-100 0 -180 63q-85 68 -85 163q0 97 73.5 165.5t171.5 68.5q95 0 158 -42v27z" />
    <glyph glyph-name="t" unicode="t" 
d="M174 101h100v620h-115v-107h-108v217h548v-217h-108v107h-110v-620h103v-110h-310v110z" />
    <glyph glyph-name="u" unicode="u" 
d="M326 -23q-90 0 -152.5 67t-62.5 157v518h-60v110h229v-110h-62v-518q0 -45 31.5 -80t76.5 -35q44 0 75 36q30 33 30 79v518h-61v110h229v-110h-60l-1 -519q0 -90 -60 -156q-63 -67 -152 -67z" />
    <glyph glyph-name="v" unicode="v" 
d="M259 -4l-135 723h-73v110h229v-110h-47l92 -491l91 491h-46v110h229v-110h-73l-134 -723h-133z" />
    <glyph glyph-name="w" unicode="w" 
d="M73 748h-22v83h149v-83h-44l62 -566l61 566h-36v83h168v-83h-40l61 -566l62 566h-43v83h148v-83h-22l-84 -761h-122l-46 397l-46 -397h-122z" />
    <glyph glyph-name="x" unicode="x" 
d="M50 101h70l145 311l-144 309h-71v110h238v-110h-48l85 -181l84 181h-47v110h238v-110h-71l-145 -309l146 -311h70v-110h-238v110h49l-86 184l-86 -184h49v-110h-238v110z" />
    <glyph glyph-name="y" unicode="y" 
d="M170 101h100v230l-155 390h-64v110h229v-110h-48l93 -236l93 236h-48v110h229v-110h-65l-156 -399v-221h103v-110h-311v110z" />
    <glyph glyph-name="z" unicode="z" 
d="M595 -6h-544v86l407 641h-297v-107h-107v217h540v-98l-400 -630h297v107h103z" />
    <glyph glyph-name="braceleft" unicode="{" horiz-adv-x="900" 
d="M270 834q-81 0 -131 -76q-45 -66 -45 -152q0 -89 74 -214q28 -48 153 -223q97 -137 129 -216q32 79 129 216q125 175 153 223q74 125 74 214q0 86 -45 152q-50 76 -131 76q-80 0 -129 -73q-44 -64 -44 -148h-15q0 84 -43 148q-49 73 -129 73z" />
    <glyph glyph-name="bar" unicode="|" horiz-adv-x="2119" 
d="M2036 884q-12 -2 -23.5 -15t-11.5 -25v-160h-36v200q0 12 -8 19l22 27q20 -7 22 -35q27 35 35 35v-46zM1948 858q0 -64 -52 -78q0 -20 8 -37q10 -22 27 -22q6 0 16 5v-41q-8 -3 -20 -3q-70 0 -70 123v28q0 97 46 97q45 0 45 -72zM1839 684h-37v200q0 10 -9 10q-5 0 -9 -6
v-204h-37v200q0 14 -7 19l23 27q10 -2 18 -17q13 17 28 17q30 0 30 -43v-203zM1727 684h-36v198q0 12 -9 12q-6 -3 -11 -8v-202h-36v317h37v-85q12 15 26 15q29 0 29 -47v-200zM1619 805q0 -124 -44 -124q-47 0 -47 124q0 125 45 125q46 0 46 -125zM1519 684h-68v317h43
v-275h25v-42zM1885 285h-36v197q0 13 -9 13q-6 -2 -10 -7v-203h-36v198q0 12 -9 12q-6 -2 -9 -7v-203h-37v206q0 10 -6 15l21 26q16 -5 20 -19q12 19 28 19q17 0 26 -18q14 18 29 18q28 0 28 -45v-202zM1391 713l-21 -32q-15 4 -20 22q-12 -21 -24 -21q-36 0 -36 92v44
q0 112 56 112v71h36v-258q0 -22 9 -30zM1280 708l-28 -26q-20 6 -20 32v287h36v-268q0 -20 12 -25zM1721 407q0 -124 -45 -124q-47 0 -47 124t45 124q47 0 47 -124zM2069 -113h-36v197q0 13 -9 13q-6 -3 -10 -8v-202h-36v198q0 12 -9 12q-6 -3 -10 -8v-202h-36v206
q0 10 -6 15l21 26q15 -5 19 -19q13 19 29 19t25 -18q14 18 29 18q29 0 29 -45v-202zM1619 289q-9 -7 -18 -7q-51 0 -51 111v35q0 104 52 104q8 0 17 -3v-37q-7 3 -9 3q-23 0 -23 -67v-37q0 -71 20 -71q8 0 12 5v-36zM1213 805q0 -124 -44 -124q-47 0 -47 124q0 125 45 125
q46 0 46 -125zM1489 310l-28 -27q-20 6 -20 33v286h36v-267q0 -20 12 -25zM1113 884q-13 -2 -24 -15t-11 -25v-160h-37v200q0 12 -8 19l22 27q20 -7 23 -35q26 35 35 35v-46zM1904 9q0 -124 -44 -124q-48 0 -48 124t46 124t46 -124zM1541 306q0 -23 -23 -23q-24 0 -24 23
t24 23q23 0 23 -23zM1423 407q0 -124 -45 -124q-47 0 -47 124t45 124q47 0 47 -124zM1029 713l-21 -31q-12 2 -20 21q-10 -21 -25 -21q-36 0 -36 108v30q0 110 75 110h17v-182q0 -28 10 -35zM1803 -109q-10 -7 -19 -7q-50 0 -50 110v36q0 104 51 104q8 0 17 -4v-37
q-7 3 -9 3q-22 0 -22 -66v-37q0 -71 19 -71q9 0 13 5v-36zM906 684h-42v133h-22v-133h-43v317h43v-143h22v143h42v-317zM1325 315l-21 -32q-11 3 -20 21q-10 -21 -25 -21q-35 0 -35 109v29q0 110 74 110h18v-181q0 -28 9 -35zM1670 -60q0 -55 -42 -55q-14 0 -25 6v37
q6 -8 15 -8q18 0 18 19q0 24 -16.5 69.5t-16.5 69.5q0 56 38 56q11 0 25 -8v-34q-7 6 -14 6q-14 0 -14 -19q0 -23 16 -68.5t16 -70.5zM1725 -92q0 -23 -24 -23q-23 0 -23 23t23 23q24 0 24 -23zM1593 -108q-10 -7 -19 -7q-35 0 -35 42v173h-19v11q13 13 45 60h10v-40h18v-31
h-18v-167q0 -13 10 -13q2 0 8 3v-31zM739 774q0 -88 -81 -93v44q36 4 36 50q0 49 -36 50v35h3q32 -1 32 59q0 41 -24 41q-5 0 -11 -2v40q9 5 20 5q30 0 46 -29q13 -23 13 -55q0 -54 -30 -73q32 -23 32 -72zM1193 459q0 -35 -14 -69q-18 -42 -48 -42q-21 0 -27 24
q-13 -24 -34 -24q-40 0 -40 68q0 32 14 63q17 38 44 38q19 0 28 -20l2 13h32q-6 -28 -13 -56q-8 -34 -8 -56q0 -4 3 -10l4 -3q15 0 23 33q6 23 6 43q0 37 -15 60q-19 28 -53 28q-44 0 -69 -42q-21 -35 -21 -82q0 -45 19 -77q23 -39 65 -39q37 0 73 41l13 -30
q-40 -47 -88 -47q-54 0 -84 52q-25 42 -25 101t27 105q32 54 87 54q48 0 75 -41q24 -35 24 -85zM1506 -113h-37v200q0 10 -9 10q-5 0 -9 -6v-204h-36v201q0 14 -8 19l23 27q11 -3 19 -18q13 18 28 18q29 0 29 -44v-203zM644 839q0 -157 -54 -157q-60 0 -60 159q0 162 57 162
t57 -164zM1399 9q0 -124 -45 -124q-47 0 -47 124t45 124q47 0 47 -124zM955 486q-12 -2 -23.5 -15t-11.5 -26v-160h-36v201q0 12 -9 19l22 26q20 -7 23 -34q26 34 35 34v-45zM515 839q0 -157 -54 -157q-59 0 -59 159q0 162 56 162q57 0 57 -164zM1297 171q-14 -1 -17 -15
v-25h17v-31h-17v-194q0 -65 -52 -65v40q16 -1 16 31v188h-16v31h15q0 77 49 75h5v-35zM867 460q0 -65 -52 -78q0 -20 7 -37q10 -22 28 -22q5 0 16 4v-41q-8 -3 -20 -3q-70 0 -70 123v29q0 96 46 96q45 0 45 -71zM1218 -60q0 -55 -42 -55q-14 0 -25 6v37q6 -8 15 -8
q18 0 18 19q0 24 -16 69.5t-16 69.5q0 56 38 56q10 0 24 -8v-34q-7 6 -13 6q-15 0 -15 -19q0 -23 16 -68.5t16 -70.5zM386 684h-88q41 145 41 235q0 36 -21 36q-11 0 -20 -10v41q19 17 36 17q49 0 49 -77q0 -62 -31 -201h34v-41zM1145 -84l-21 -32q-15 4 -20 22
q-12 -21 -24 -21q-36 0 -36 92v44q0 113 56 113v70h36v-258q0 -22 9 -30zM757 285h-36v200q0 11 -9 11q-6 0 -10 -6v-205h-36v201q0 14 -7 19l23 27q10 -3 18 -17q13 17 28 17q29 0 29 -43v-204zM1034 -88l-28 -27q-20 6 -20 32v287h36v-267q0 -20 12 -25zM646 285h-36v199
q0 12 -9 12q-6 -3 -11 -8v-203h-36v317h37v-85q11 15 25 15q30 0 30 -46v-201zM277 827q0 -52 -22 -95q-28 -52 -76 -52q-47 0 -75 52q-22 43 -22 95t22 95q28 52 75 52q48 0 76 -52q22 -43 22 -95zM968 9q0 -124 -45 -124q-47 0 -47 124t45 124q47 0 47 -124zM538 407
q0 -124 -44 -124q-48 0 -48 124t46 124t46 -124zM437 285h-67v317h42v-275h25v-42zM867 88q-13 -3 -24 -16t-11 -25v-160h-37v200q0 12 -8 19l22 27q20 -7 23 -35q26 35 35 35v-45zM783 -84l-21 -31q-12 3 -20 21q-10 -21 -25 -21q-36 0 -36 109v29q0 110 75 110h17v-182
q0 -27 10 -35zM347 285h-42v134h-23v-134h-42v317h42v-142h23v142h42v-317zM661 -113h-36v198q0 12 -9 12q-6 -2 -11 -7v-203h-36v317h37v-85q12 15 26 15q29 0 29 -46v-201zM556 -92q0 -23 -24 -23q-23 0 -23 23t23 23q24 0 24 -23zM501 131l-28 -246h-30l-14 156l-14 -156
h-29l-29 246h36l8 -167l11 167h33l12 -165l8 165h36zM348 131l-28 -246h-30l-14 156l-15 -156h-29l-29 246h37l7 -167l12 167h33l12 -165l8 165h36zM195 131l-29 -246h-29l-14 156l-15 -156h-29l-29 246h37l7 -167l12 167h33l12 -165l8 165h36zM1912 858q0 23 -8 34
q-9 -17 -9 -40v-31q17 6 17 37zM1583 805q0 76 -9 83q-9 -7 -9 -79q0 -77 9 -86q9 10 9 82zM1346 721v165q-19 -6 -19 -56v-51q0 -62 13 -62q4 0 6 4zM1684 406q0 77 -9 83q-9 -6 -9 -78q0 -78 9 -86q9 10 9 81zM1177 805q0 76 -9 83q-9 -7 -9 -79q0 -77 9 -86q9 10 9 82z
M1867 8q0 77 -8 83q-9 -7 -9 -79q0 -77 9 -85q8 10 8 81zM1386 406q0 77 -9 83q-9 -6 -9 -78q0 -78 9 -86q9 10 9 81zM983 720v164q-19 -6 -19 -62v-44q0 -61 13 -61q3 0 6 3zM1279 322v164q-18 -6 -18 -62v-45q0 -60 12 -60q4 0 6 3zM1106 462q0 20 -12 20t-21 -29
q-7 -23 -7 -41q0 -28 12 -28q11 0 20 33q8 27 8 45zM599 837q0 97 -12 117q-12 -16 -12 -106q0 -102 13 -118q11 18 11 107zM1362 8q0 77 -9 83q-9 -7 -9 -79q0 -77 9 -85q9 10 9 81zM471 837q0 97 -13 117q-12 -16 -12 -106q0 -102 13 -118q12 18 12 107zM831 459
q0 24 -8 35q-10 -17 -10 -40v-32q18 7 18 37zM1100 -76v165q-19 -6 -19 -56v-50q0 -62 13 -62q4 0 6 3zM250 827q0 40 -15 73q-20 42 -56 42q-35 0 -55 -42q-16 -33 -16 -73t16 -74q20 -42 55 -42q36 0 56 42q15 34 15 74zM931 8q0 77 -9 83q-9 -7 -9 -79q0 -77 9 -85
q9 10 9 81zM501 406q0 77 -8 83q-9 -6 -9 -78q0 -78 9 -86q8 10 8 81zM737 -77v165q-19 -6 -19 -62v-45q0 -60 13 -60q3 0 6 2zM232 845h-32q-3 30 -19 30q-20 0 -20 -49q0 -47 22 -47q14 0 17 28h31q-8 -69 -49 -69q-29 0 -44 32q-13 25 -13 57t11 56q15 33 43 33
q45 0 53 -71z" />
    <glyph glyph-name="braceright" unicode="}" horiz-adv-x="900" 
d="M450 858q4 -29 115 -169l144 -178q53 -73 72 -124q22 -59 22 -141q0 -69 -40 -121q-44 -57 -111 -57t-110 55q-40 51 -40 120h-24q0 -75 19 -153q21 -85 57 -143h-208q76 120 76 296h-24q0 -69 -40 -120q-43 -55 -110 -55t-111 57q-40 52 -40 121q0 82 22 141
q19 51 72 124l144 178q111 140 115 169z" />
    <glyph glyph-name="asciitilde" unicode="~" horiz-adv-x="1533" 
d="M1220 474q51 52 51 110q0 7 -3.5 20.5t-3.5 19.5q0 9 8 9q13 0 16 -11v-21q0 -42 -15 -77q-19 -44 -53 -50zM1478 -77l-9 -12l1 -16q-14 3 -17 11q-1 4 -1 20q-2 3 -8 7q0 12 7 12h16q3 0 11 -8v-14zM1281 65q-8 2 -8 9q0 8 6 15q10 0 16 -6q1 -4 1 -8q0 -8 -15 -10z
M1244 75q0 9 8 14q12 0 12 -15v-9q-4 -7 -10 -7q-10 0 -10 17zM1288 -25q0 -7 -7 -12q-19 0 -19 11q1 3 3 7q-13 18 -13 29q0 9 6 18q0 3 -1.5 8.5t-1.5 8.5l5 8q11 -3 12.5 -5.5t1.5 -14.5t7 -30.5t7 -27.5zM664 -89q29 -20 62 -20q34 0 87 23l85 38q-18 -26 -71 -48
q-49 -20 -83 -20q-5 -8 -27 -12q-16 -2 -32 -5q-23 -6 -34 -6q-21 0 -53 27.5t-44 27.5q-9 0 -11 -19q-1 -13 -3 -27l-5 -1q-5 3 -12 12q0 12 6 33t6 32q0 12 -8.5 28.5t-19.5 16.5q-18 -5 -39 -61q-26 -67 -33 -77q5 59 44 138l-4 4q-7 -6 -12 -19q-8 -19 -9 -21
q-4 -6 -20.5 -19t-16.5 -25l4 -1q3 1 4 1q8 0 8 -4l-4 -6l-9 -9l-3 12q-36 -10 -36 -29q0 -10 29 -10v-5l-39 -1q-57 -1 -57 26q0 8 5 17l-3 2q-7 -3 -27 -27q-17 -20 -32 -20q-18 0 -32.5 25.5t-20.5 25.5q-5 0 -5 -6q0 -22 20 -42q-52 0 -169 -2v1148h369q-6 -20 -19 -61
q-16 -49 -23 -49q-6 0 -18 6q-16 -8 -16 -27q0 -15 19.5 -60t19.5 -66q0 -49 31 -49q0 -24 9 -24q19 0 53 7q38 7 50 15l-15 10q-7 6 -7 16q-1 1 35 1q7 0 75 -21q10 -3 34 -26q19 -18 58 -18q33 0 103 40t100 40q2 -1 8 -24l72 -9l18 1q20 14 51 14q3 0 17 -5t23 -5
q46 0 46 57q0 65 -40 121q-4 6 -1 20q-21 10 -42 59q-3 3 -10 5l-7 7q0 9 -5 25h247q-4 -8 -24 -120.5t-23 -134.5l5 -12q-2 1 22 1q33 0 43 -69q-12 16 -22 16q-7 0 -20.5 -4t-20.5 -4q3 10 15.5 18.5t12.5 11.5q0 16 -10 16q-23 0 -39 -9q-21 -12 -21 -32t15 -20q4 0 9 2
l-15 -29l4 -8q17 -10 17 -16t-21 -21q16 -5 16 -14q0 -5 -15 -17t-15 -24q0 -19 12 -19q6 0 18 12q8 -4 8 -9l-2 -5q-27 -15 -27 -45q0 -9 2.5 -27t3.5 -26q0 -13 4 -13q19 0 51 75q28 64 33 99l6 -1q-7 -61 -38 -118q-10 -19 -53 -82q-27 -39 -27 -62q0 -33 72 -94
q34 -28 101 -82q25 -21 56 -39l36 -18q29 -17 29 -26q0 -18 -16 -18q19 0 -21 20t-54 20h-4l-2 -9h-5q-3 13 -16 33.5t-25 20.5l-6 -5q-11 -18 -11 -68t-8 -70l2 -8h2q1 0 12.5 3.5t23 3.5t11.5 16q0 8 -7 11q-8 -7 -14 -12q-12 0 -12 8q0 46 19 89q5 -12 5 -46
q0 -21 10 -21q6 0 18 1.5t18 1.5q3 0 7.5 13t8.5 13q7 0 11.5 -15.5t16.5 -17.5q-4 -27 -21 -27q-5 0 -10 8l-6 8l-6 1l-8 -6q-4 -8 -17 -17q2 -24 17 -24q6 0 18 9t18 9q7 0 15 -7v-12h-15q-23 -14 -26 -14q-4 0 -10 3q-10 -4 -10 -10q0 -5 9 -9q5 0 14 9q32 -9 32 -24
q-4 -13 -21 -13q-6 0 -6 -2q0 -16 29 -16q10 0 33 -16q-23 -14 -53 -14q-20 0 -43 7l-5 7q6 5 13 18l-4 2q-9 -5 -26 -14l-1 -6q0 -3 15 -11h-47v16q0 23 -17 23q-7 0 -7 -8l2 -15h-12q-8 1 -11 -3q-2 -4 1 -13h-37q19 13 19 29q-3 3 -9 3q-5 0 -15.5 -6t-15.5 -6
q-11 0 -11 13q0 8 20 13.5t22 9.5q13 13 32 41q17 0 17 -6q0 -10 -14.5 -23.5t-15.5 -16.5l9 -5q3 1 12 6.5t15 5.5q7 0 17.5 -13t18.5 -13q14 0 19 13q-28 5 -55 33q4 4 8 16q-12 17 -12 38q0 12 4.5 34.5t4.5 34.5q0 105 -32 105q-4 0 -11.5 -2t-10.5 -2q-8 0 -10 7
q-1 3 -1 7t1 9l1 14q0 4 -3 7q-13 12 -41 34v-4q0 -18 12.5 -52t12.5 -51q0 -59 -4 -88q6 -8 11 -14q0 -12 -12 -12h-13q0 14 1 41.5t1 41.5q0 82 -35 122q-18 -28 -53 -69q-42 -49 -60 -59q-2 -6 -13.5 -21t-11.5 -22q0 -5 1 -7q30 17 59 60q16 24 48 71
q-24 -108 -143 -173q-2 -1 -6 -1t-11.5 4t-11.5 4q-4 -2 -5.5 -14t-6.5 -14q-7 -5 -23 -11q-85 -26 -115 -25q-9 -10 -67 -23q-51 -12 -73 -12q-6 0 -12 8zM451 714q-2 0 -12 3l7 7l2 6q6 -4 10 -1q7 2 10 2q6 0 16 -13q-6 0 -17 -2t-16 -2zM1040 -88l-4 4q26 24 76 72
q44 43 44 90q0 4 -6 36q6 5 16 19q-1 8 -1 15q0 18 13 44q8 -26 8 -53q0 -113 -146 -227zM1102 41q0 13 10 13q14 0 14 -8q-4 -7 -8 -12q-9 0 -16 7zM1202 -87q0 24 -8 24q-10 0 -18 -15q-10 -19 -13 -21l3 -4l11 -3q3 4 12 12q7 0 7 -16q-9 -6 -17 -19q4 -6 14 -6v-5
q-28 0 -129 -1q26 21 78 64q40 36 56 81q7 6 12 6q3 0 5 -2q3 -8 1 -19l-1 -18v-5h3q2 0 7 -2.5t7 -2.5q2 1 4 1q4 0 3 -3q-7 -26 -11 -29zM892 710q-19 0 -63 -22.5t-44 -39.5q0 -8 5.5 -20t5.5 -15q0 -5 -4 -10q7 -5 38 -40q17 -19 55 -19t76 10q55 16 55 41q0 20 -21 20
q-9 0 -33 -34q-3 5 -11.5 6.5t-8.5 6.5q0 2 12.5 19t12.5 25t-7 12q-19 -41 -40 -41q-25 0 -39 41q-19 -7 -19 -20l3 -10q1 -2 17 -8q12 -5 12 -13q0 -16 -11 -16t-18 4l-2 1q-8 -7 -20 -16l9 30q0 7 -6 10q-18 8 -23 12t-15 18q64 43 94 43q6 0 21 -3.5t22 -2.5q24 3 21 3
q17 0 50 -43l12 4q2 9 2 15q0 31 -49 40l-70 4l-9 4.5t-10 3.5zM1166 566q0 6 2.5 19t2.5 19q0 24 -11 52q-14 34 -34 34q4 0 -40 -11q-7 -2 -16 0q-13 1 -16 1q-8 0 -8 -14q0 -8 7 -21t7 -21q0 -1 -8 -30q-6 -46 -40 -62q-17 -8 -81 -16q-4 -1 -8.5 -8.5t-11.5 -7.5
q-12 0 -37 7.5t-34.5 8.5t-26.5 14q-21 16 -25 18q-22 0 -22 -15q0 -8 6.5 -16l6.5 -8q0 -6 -4 -10q11 -35 12.5 -43t1.5 -44q0 -24 18 -24q21 0 21 20q0 7 -9.5 22.5t-9.5 24.5l1 10q36 -36 36 -46q0 -15 -6 -30q-9 -19 -22 -19q-3 0 -13 4t-15 4q-17 0 -38.5 -16.5
t-27.5 -16.5q-4 0 -12 2t-12 2l-7 -2q11 -10 11 -22q0 -9 -8.5 -27t-8.5 -24q0 -17 25 -17q18 0 30 9q-1 3 -7 19q-4 11 -4 18q0 18 13 31t31 13q8 0 12 -8t9 -8l6 5l2 4l8 7q13 -3 28 -16l24 -20l7 1q13 17 24 15q3 1 12.5 12.5t14.5 11.5q16 0 36 -30.5t20 -49.5
q0 -29 -31 -29q0 -7 11 -19.5t11 -16.5q0 -7 -9 -10q-14 -3 -15 -5q-5 -10 -5 -16q0 -20 16 -20q10 0 33.5 21.5t23.5 31.5t-20 36q7 -1 11 -1q9 0 19 12t13 12t7.5 -2t6.5 -2q7 0 9 13q1 12 0 24q-1 11 -2 18q0 8 3 18q12 -7 14 -26.5t9 -19.5q28 0 44 30q-27 7 -27 13l3 9
q2 2 5 2q2 -1 9 -6q10 8 10 20q0 23 -28 23q0 14 10 14q4 0 13 -3.5t14 -3.5q16 0 31 36q14 31 14 49q0 13 -8 33t-8 22q0 3 4.5 9t4.5 9q-3 6 -8 20zM1081 246h-2l-2 -5l6 -6l3 9q-1 2 -5 2zM1355 -49q0 -10 9 -10q11 0 11 16l-2 7q-3 4 -6 4q-12 0 -12 -17zM1043 253
q-8 -5 -8 -12l5 -10q7 4 7 10l4 7zM1067 225l-6 -13h8q3 1 3 8l-1 7zM647 659q-3 0 -6 -5q11 -9 11 -48l3 -2q2 4 2 10q0 35 -10 45zM1060 182q-5 -1 -8 -8l5 -2l5 5zM747 582q0 66 -36 66q-40 0 -40 -59q0 7 1 -23v-21q0 -8 -2 -23.5t-2 -23.5q0 -2 2 -7.5t2 -8.5
q-17 -33 -43 -61q-8 -9 -8 -16q0 -14 9 -14q2 0 7 10t11 10q2 0 24.5 -22t38.5 -25q3 -3 9 -3q11 0 38 25t27 36t-20.5 58t-19.5 71q2 41 2 31zM879 291q-5 0 -5 -11l9 -4q7 0 19 -5l4 8q-25 12 -27 12zM496 682q-61 0 -61 -29l5 -8q3 -3 6 -3q4 0 22 13q9 7 18 7
q23 -4 18 -4q15 0 15 9q0 15 -23 15zM608 630q0 -35 -36 -35q2 3 14.5 36t12.5 36q0 6 -8 13t-15 7q-21 0 -21 -17q0 -6 11 -19q14 -16 15 -19q-8 -3 -20.5 -23t-31.5 -20q-16 0 -24 14.5t-14 28.5l-11 -3v-3q0 -9 12.5 -23t12.5 -21q0 -10 -18 -12q-23 -3 -26 -5v-13
q-4 -1 -7 -1q-15 0 -19 18q-1 12 -3 29q-2 8 -5 8q-11 0 -11 -36q0 -35 34 -44q11 -4 62 -4q74 0 118 78v3q1 10 -5.5 18.5t-16.5 8.5zM1014 118q-8 0 -8 -11l4 -2q14 0 14 12zM812 293h-3q-9 -9 -9 -17l5 -9l3 -1q3 0 9 12zM755 307q-8 0 -8 -15q0 -13 21 -21l5 3l1 5
q0 7 -6.5 17.5t-12.5 10.5zM876 112q46 2 46 71q0 11 -3 20q2 0 5.5 -1.5t5.5 -1.5q2 2 10 12q-2 15 -15.5 26.5t-29.5 11.5q-46 0 -138 -8.5t-138 -8.5q-6 0 -15.5 4.5t-14.5 4.5q-7 -9 -15 -16q-6 0 -13 4q-2 -2 -7.5 -11.5t-7.5 -9.5l-2 1q-27 6 -27 74q0 7 2 14
q6 2 17 7q28 42 52 42q14 0 13 -7q-5 -11 -10 -14q-19 -7 -19 -22q4 -6 8 -6h4q47 54 56 54q4 0 12 -2t11 -2q7 0 7 10q0 19 -21 19q-4 0 -11.5 -3t-11.5 -3q-11 0 -18 11t-7 22q0 36 42 65q8 13 8 53q0 8 -3 31q-1 20 1 32l-4 2q-6 -4 -18 -33t-26 -41q-26 -22 -73 -22
q-16 0 -46 11t-40 11q-4 0 -9 -3l-8 -3q-44 23 -60 60h-4l-1 -16q-1 -24 4 -70q6 -50 6 -70q0 -9 14 -12t14 -6l-6 -12q-15 -7 -15 -21q0 -10 10 -30.5t18 -20.5q5 0 12.5 7t8.5 7q4 0 7 -2q22 -27 56 -91q-19 -5 -19 -27q0 -20 33 -59l10 -4q7 4 7 11l-1 5q-3 2 -16 2v11
q4 7 10 7q3 0 9.5 -6l6.5 -6q6 5 23 29q13 19 29 19q7 0 7 -17q-27 -11 -27 -34l3 -12q7 -5 12 -5q4 0 6 2l-3 12v9l22 11q9 7 9 21q17 0 18 -7q-15 -32 -40 -99l2 -9l8 1q5 15 3 23q20 0 51 40q19 -1 31.5 14t19.5 15q5 0 13.5 -5.5t13.5 -5.5q21 0 36 7l30 19
q7 -2 14.5 -15.5t12.5 -18.5q-5 0 -12 2.5t-11 2.5l-6 -3q-7 -24 -23 -67q-1 -2 -21 -9v-7q-2 -17 18 -51q5 3 9 3q12 0 17 -14l7 5q2 4 15 25t13 22q0 13 -38 21q3 4 6 27q3 17 16 17q11 0 14 -19q4 -23 6 -25l13 -4q13 7 12 23q-1 9 -1 14q0 7 10 7q8 -3 9 -16zM653 320
q-7 -3 -17 -34l3 -3q8 11 19 35zM849 68q0 -15 11 -15q8 0 8 12l5 9q0 10 -12 10t-12 -16zM885 27l-2 1q-2 0 -18 -8l3 -8l10 4q4 6 10 8zM325 511q0 3 -5 14.5t-5 17.5q0 3 8.5 24.5t8.5 33.5q0 7 -13.5 30.5t-18.5 23.5q-27 0 -27 -42q0 -19 44 -109l7 -4zM855 39l-4 1
q-13 0 -13 -15l1 -2q0 -3 3 -3q4 0 10.5 3.5t6.5 7.5zM827 4q-9 0 -9 -14q0 -5 9 -5h7q5 3 5 7q0 6 -12 12zM674 116h6q16 0 16 15l-2 8q-2 1 -4 1q-18 0 -18 -18q0 -3 2 -6zM746 144q-22 1 -26 -13q-1 -2 -1 -33q-7 9 -22 17l-6 -3q-1 -4 -1 -7q0 -17 15 -27q-8 -7 -14 -16
q9 -46 25 -46h3l2 6q-8 9 -8 21q0 25 22 56t22 34l-3 10zM748 26l-7 5q-14 -5 -14 -29q0 -6 9 -9q9 5 17 20zM658 105l-5 2q-4 -1 -13 -8v-9q4 -8 9 -8t10 6l1 9zM670 70l-2 5q-16 -3 -16 -17q0 -10 12 -10l6 3v19zM432 296l-7 5q-13 -2 -13 -19q0 -13 12 -13t11 19z
M451 230q11 0 11 19l-5 9h-3q-12 0 -12 -15q0 -13 9 -13zM619 74l4 10q0 3 -3 6q-22 -7 -22 -32q0 -28 17 -28q8 0 7 20q-2 12 -3 24zM639 8l1 -1l6 -3q16 14 17 16q0 2 -1 4q-23 -1 -23 -16zM602 -71q-11 0 -11 -10q0 -17 51 -38l9 -1l7 4l1 4q0 11 -22.5 26t-34.5 15z
M391 23v-3q4 2 22 13q15 10 15 17l-4 9l-4 1q-10 0 -19.5 -13.5t-9.5 -23.5zM402 -4l2 -10q4 -3 16.5 5.5t12.5 14.5q0 2 -1 3q-1 6 -7 6q-15 0 -23 -19zM377 51h-2q-5 0 -14 -18q0 -12 10 -12q11 5 11 19zM401 -31q-7 4 -13 4q-16 0 -37 -36t-21 -55q0 -4 3 -4q-7 0 23 8
q0 13 16 34q2 21 17 27q11 5 15 12zM367 7q-58 0 -93 -103l5 -2q9 4 25.5 26t29.5 29q2 4 2 9t-2 12l8 -1q27 0 33 26zM257 16q2 -21 10 -21q10 0 10 13q0 12 -11 12zM331 -72q-9 0 -9 -13l4 -2q11 6 11 10l-1 2zM227 -17l-9 -6v-4q0 -12 14 -12q11 9 11 15q0 7 -16 7z
M248 -62q0 -2 14 -5q10 0 10 9q-2 5 -8 5q-3 0 -9.5 -3.5t-6.5 -5.5zM248 -108l-6 -2q1 -12 9 -12q9 0 9 8q-3 6 -12 6zM141 -95l-4 -1q-6 -3 -6 -13q0 -15 11 -15q12 0 12 14q0 15 -13 15zM766 64q0 13 11 13q14 0 14 -19q0 -11 -11 -11q-14 0 -14 17zM406 335
q-6 6 -6.5 19t-3.5 15l5 5q14 -14 14 -24l-3 -8zM1026 195q-2 -3 -2 -5v-3q0 -2 2 -5l8 2q4 2 3 6q-1 1 -3 5h-8z" />
    <glyph glyph-name="Adieresis" unicode="&#xc4;" 
d="M261 281h128l-64 341zM274 92v-101h-223v101h73l138 737h125l139 -737h73v-101h-223v101h48l-16 88h-166l-16 -88h48zM392 921q0 22 16 38t39 16q22 0 38 -16t16 -38q0 -23 -16 -39t-38 -16q-23 0 -39 16t-16 39zM149 921q0 22 16 38t38 16q23 0 39 -16t16 -38
q0 -23 -16 -39t-39 -16q-22 0 -38 16t-16 39z" />
    <glyph glyph-name="Aring" unicode="&#xc5;" 
d="M599 -9h-223v101h48l-16 88h-166l-16 -88h48v-101h-223v101h73l136 729q-43 32 -43 87q0 44 32 76t76 32q45 0 76.5 -32t31.5 -76q0 -55 -44 -88l137 -728h73v-101zM367 908q0 17 -12.5 29t-29.5 12t-29.5 -12t-12.5 -29t12.5 -29.5t29.5 -12.5t29.5 12.5t12.5 29.5z
M389 281l-64 341l-64 -341h128z" />
    <glyph glyph-name="Ccedilla" unicode="&#xc7;" 
d="M472 830h108v-262h-108q0 167 -147 167q-69 0 -108 -41.5t-39 -111.5v-340q0 -70 39 -113t108 -43q73 0 112 50q35 45 35 121h108q0 -124 -65 -200q-69 -80 -190 -80q-114 0 -184.5 75t-70.5 190v340q0 116 70 189.5t185 73.5q42 0 88 -20q40 -17 59 -39v44zM276 80h98
v-206h-98v206z" />
    <glyph glyph-name="Eacute" unicode="&#xc9;" 
d="M492 208h107v-217h-548v110h79v620h-79v110h548v-217h-107v107h-254v-254h257v-109h-257v-257h254v107zM222 865l-23 83l229 62l23 -84z" />
    <glyph glyph-name="Ntilde" unicode="&#xd1;" 
d="M295 -9h-245v92h76v656h-76v92h196l186 -552v460h-65v92h233v-92h-76v-743h-93l-213 634v-547h77v-92zM365 877q-27 0 -53.5 16.5l-26.5 16.5q-13 0 -13 -23h-87q0 48 29 79t71 31q27 0 53.5 -16.5l26.5 -16.5q13 0 13 23h87q0 -48 -29 -79t-71 -31z" />
    <glyph glyph-name="Odieresis" unicode="&#xd6;" 
d="M50 264v297q0 116 80 200t195 84t195 -84t80 -200v-297q0 -116 -80 -201.5t-195 -85.5t-195 85.5t-80 201.5zM166 561v-297q0 -68 46.5 -118.5t112.5 -50.5t112.5 51t46.5 118v297q0 67 -46.5 116t-112.5 49t-112.5 -49t-46.5 -116zM392 921q0 22 16 38t39 16
q22 0 38 -16t16 -38q0 -23 -16 -39t-38 -16q-23 0 -39 16t-16 39zM149 921q0 22 16 38t38 16q23 0 39 -16t16 -38q0 -23 -16 -39t-39 -16q-22 0 -38 16t-16 39z" />
    <glyph glyph-name="Udieresis" unicode="&#xdc;" 
d="M326 -23q-90 0 -152.5 67t-62.5 157v518h-60v110h229v-110h-62v-518q0 -45 31.5 -80t76.5 -35q44 0 75 36q30 33 30 79v518h-61v110h229v-110h-60l-1 -519q0 -90 -60 -156q-63 -67 -152 -67zM392 921q0 22 16 38t39 16q22 0 38 -16t16 -38q0 -23 -16 -39t-38 -16
q-23 0 -39 16t-16 39zM149 921q0 22 16 38t38 16q23 0 39 -16t16 -38q0 -23 -16 -39t-39 -16q-22 0 -38 16t-16 39z" />
    <glyph glyph-name="aacute" unicode="&#xe1;" 
d="M261 281h128l-64 341zM274 92v-101h-223v101h73l138 737h125l139 -737h73v-101h-223v101h48l-16 88h-166l-16 -88h48zM222 865l-23 83l229 62l23 -84z" />
    <glyph glyph-name="agrave" unicode="&#xe0;" 
d="M261 281h128l-64 341zM274 92v-101h-223v101h73l138 737h125l139 -737h73v-101h-223v101h48l-16 88h-166l-16 -88h48zM428 865l-229 61l23 84l229 -62z" />
    <glyph glyph-name="acircumflex" unicode="&#xe2;" 
d="M261 281h128l-64 341zM274 92v-101h-223v101h73l138 737h125l139 -737h73v-101h-223v101h48l-16 88h-166l-16 -88h48zM418 866l-93 50l-93 -50l-41 77l134 71l134 -71z" />
    <glyph glyph-name="adieresis" unicode="&#xe4;" 
d="M261 281h128l-64 341zM274 92v-101h-223v101h73l138 737h125l139 -737h73v-101h-223v101h48l-16 88h-166l-16 -88h48zM392 921q0 22 16 38t39 16q22 0 38 -16t16 -38q0 -23 -16 -39t-38 -16q-23 0 -39 16t-16 39zM149 921q0 22 16 38t38 16q23 0 39 -16t16 -38
q0 -23 -16 -39t-39 -16q-22 0 -38 16t-16 39z" />
    <glyph glyph-name="atilde" unicode="&#xe3;" 
d="M261 281h128l-64 341zM274 92v-101h-223v101h73l138 737h125l139 -737h73v-101h-223v101h48l-16 88h-166l-16 -88h48zM365 877q-27 0 -53.5 16.5l-26.5 16.5q-13 0 -13 -23h-87q0 48 29 79t71 31q27 0 53.5 -16.5l26.5 -16.5q13 0 13 23h87q0 -48 -29 -79t-71 -31z" />
    <glyph glyph-name="aring" unicode="&#xe5;" 
d="M599 -9h-223v101h48l-16 88h-166l-16 -88h48v-101h-223v101h73l136 729q-43 32 -43 87q0 44 31.5 76t76.5 32t76.5 -32t31.5 -76q0 -55 -44 -88l137 -728h73v-101zM367 908q0 17 -12.5 29t-29.5 12t-29.5 -12t-12.5 -29q0 -18 12.5 -30t29.5 -12t29.5 12.5t12.5 29.5z
M389 281l-64 341l-64 -341h128z" />
    <glyph glyph-name="ccedilla" unicode="&#xe7;" 
d="M472 830h108v-262h-108q0 167 -147 167q-69 0 -108 -41.5t-39 -111.5v-340q0 -70 39 -113t108 -43q73 0 112 50q35 45 35 121h108q0 -124 -65 -200q-69 -80 -190 -80q-114 0 -184.5 75t-70.5 190v340q0 116 70 189.5t185 73.5q42 0 88 -20q40 -17 59 -39v44zM276 80h98
v-206h-98v206z" />
    <glyph glyph-name="eacute" unicode="&#xe9;" 
d="M492 208h107v-217h-548v110h79v620h-79v110h548v-217h-107v107h-254v-254h257v-109h-257v-257h254v107zM222 865l-23 83l229 62l23 -84z" />
    <glyph glyph-name="egrave" unicode="&#xe8;" 
d="M492 208h107v-217h-548v110h79v620h-79v110h548v-217h-107v107h-254v-254h257v-109h-257v-257h254v107zM428 865l-229 61l23 84l229 -62z" />
    <glyph glyph-name="ecircumflex" unicode="&#xea;" 
d="M492 208h107v-217h-548v110h79v620h-79v110h548v-217h-107v107h-254v-254h257v-109h-257v-257h254v107zM418 866l-93 50l-93 -50l-41 77l134 71l134 -71z" />
    <glyph glyph-name="edieresis" unicode="&#xeb;" 
d="M492 208h107v-217h-548v110h79v620h-79v110h548v-217h-107v107h-254v-254h257v-109h-257v-257h254v107zM392 921q0 22 16 38t39 16q22 0 38 -16t16 -38q0 -23 -16 -39t-38 -16q-23 0 -39 16t-16 39zM149 921q0 22 16 38t38 16q23 0 39 -16t16 -38q0 -23 -16 -39t-39 -16
q-22 0 -38 16t-16 39z" />
    <glyph glyph-name="iacute" unicode="&#xed;" 
d="M93 -7v118h177v601h-177v119h464v-119h-173v-601h173v-118h-464zM222 865l-23 83l229 62l23 -84z" />
    <glyph glyph-name="igrave" unicode="&#xec;" 
d="M93 -7v118h177v601h-177v119h464v-119h-173v-601h173v-118h-464zM428 865l-229 61l23 84l229 -62z" />
    <glyph glyph-name="icircumflex" unicode="&#xee;" 
d="M93 -7v118h177v601h-177v119h464v-119h-173v-601h173v-118h-464zM418 866l-93 50l-93 -50l-41 77l134 71l134 -71z" />
    <glyph glyph-name="idieresis" unicode="&#xef;" 
d="M93 -7v118h177v601h-177v119h464v-119h-173v-601h173v-118h-464zM392 921q0 22 16 38t39 16q22 0 38 -16t16 -38q0 -23 -16 -39t-38 -16q-23 0 -39 16t-16 39zM149 921q0 22 16 38t38 16q23 0 39 -16t16 -38q0 -23 -16 -39t-39 -16q-22 0 -38 16t-16 39z" />
    <glyph glyph-name="ntilde" unicode="&#xf1;" 
d="M295 -9h-245v92h76v656h-76v92h196l186 -552v460h-65v92h233v-92h-76v-743h-93l-213 634v-547h77v-92zM365 877q-27 0 -53.5 16.5l-26.5 16.5q-13 0 -13 -23h-87q0 48 29 79t71 31q27 0 53.5 -16.5l26.5 -16.5q13 0 13 23h87q0 -48 -29 -79t-71 -31z" />
    <glyph glyph-name="oacute" unicode="&#xf3;" 
d="M50 264v297q0 116 80 200t195 84t195 -84t80 -200v-297q0 -116 -80 -201.5t-195 -85.5t-195 85.5t-80 201.5zM166 561v-297q0 -68 46.5 -118.5t112.5 -50.5t112.5 51t46.5 118v297q0 67 -46.5 116t-112.5 49t-112.5 -49t-46.5 -116zM222 865l-23 83l229 62l23 -84z" />
    <glyph glyph-name="ograve" unicode="&#xf2;" 
d="M50 264v297q0 116 80 200t195 84t195 -84t80 -200v-297q0 -116 -80 -201.5t-195 -85.5t-195 85.5t-80 201.5zM166 561v-297q0 -68 46.5 -118.5t112.5 -50.5t112.5 51t46.5 118v297q0 67 -46.5 116t-112.5 49t-112.5 -49t-46.5 -116zM428 865l-229 61l23 84l229 -62z" />
    <glyph glyph-name="ocircumflex" unicode="&#xf4;" 
d="M50 264v297q0 116 80 200t195 84t195 -84t80 -200v-297q0 -116 -80 -201.5t-195 -85.5t-195 85.5t-80 201.5zM166 561v-297q0 -68 46.5 -118.5t112.5 -50.5t112.5 51t46.5 118v297q0 67 -46.5 116t-112.5 49t-112.5 -49t-46.5 -116zM418 866l-93 50l-93 -50l-41 77
l134 71l134 -71z" />
    <glyph glyph-name="odieresis" unicode="&#xf6;" 
d="M50 264v297q0 116 80 200t195 84t195 -84t80 -200v-297q0 -116 -80 -201.5t-195 -85.5t-195 85.5t-80 201.5zM166 561v-297q0 -68 46.5 -118.5t112.5 -50.5t112.5 51t46.5 118v297q0 67 -46.5 116t-112.5 49t-112.5 -49t-46.5 -116zM392 921q0 22 16 38t39 16
q22 0 38 -16t16 -38q0 -23 -16 -39t-38 -16q-23 0 -39 16t-16 39zM149 921q0 22 16 38t38 16q23 0 39 -16t16 -38q0 -23 -16 -39t-39 -16q-22 0 -38 16t-16 39z" />
    <glyph glyph-name="otilde" unicode="&#xf5;" 
d="M50 264v297q0 116 80 200t195 84t195 -84t80 -200v-297q0 -116 -80 -201.5t-195 -85.5t-195 85.5t-80 201.5zM166 561v-297q0 -68 46.5 -118.5t112.5 -50.5t112.5 51t46.5 118v297q0 67 -46.5 116t-112.5 49t-112.5 -49t-46.5 -116z" />
    <glyph glyph-name="uacute" unicode="&#xfa;" 
d="M326 -23q-90 0 -152.5 67t-62.5 157v518h-60v110h229v-110h-62v-518q0 -45 31.5 -80t76.5 -35q44 0 75 36q30 33 30 79v518h-61v110h229v-110h-60l-1 -519q0 -90 -60 -156q-63 -67 -152 -67zM222 865l-23 83l229 62l23 -84z" />
    <glyph glyph-name="ugrave" unicode="&#xf9;" 
d="M326 -23q-90 0 -152.5 67t-62.5 157v518h-60v110h229v-110h-62v-518q0 -45 31.5 -80t76.5 -35q44 0 75 36q30 33 30 79v518h-61v110h229v-110h-60l-1 -519q0 -90 -60 -156q-63 -67 -152 -67zM428 865l-229 61l23 84l229 -62z" />
    <glyph glyph-name="ucircumflex" unicode="&#xfb;" 
d="M326 -23q-90 0 -152.5 67t-62.5 157v518h-60v110h229v-110h-62v-518q0 -45 31.5 -80t76.5 -35q44 0 75 36q30 33 30 79v518h-61v110h229v-110h-60l-1 -519q0 -90 -60 -156q-63 -67 -152 -67zM418 866l-93 50l-93 -50l-41 77l134 71l134 -71z" />
    <glyph glyph-name="udieresis" unicode="&#xfc;" 
d="M326 -23q-90 0 -152.5 67t-62.5 157v518h-60v110h229v-110h-62v-518q0 -45 31.5 -80t76.5 -35q44 0 75 36q30 33 30 79v518h-61v110h229v-110h-60l-1 -519q0 -90 -60 -156q-63 -67 -152 -67zM392 921q0 22 16 38t39 16q22 0 38 -16t16 -38q0 -23 -16 -39t-38 -16
q-23 0 -39 16t-16 39zM149 921q0 22 16 38t38 16q23 0 39 -16t16 -38q0 -23 -16 -39t-39 -16q-22 0 -38 16t-16 39z" />
    <glyph glyph-name="degree" unicode="&#xb0;" 
d="M325 526q-62 0 -106.5 44.5t-44.5 107.5q0 62 44.5 107t106.5 45t106.5 -45t44.5 -107q0 -63 -44.5 -107.5t-106.5 -44.5zM325 742q-26 0 -45 -19t-19 -45q0 -27 19 -45.5t45 -18.5t45 18.5t19 45.5q0 26 -19 45t-45 19z" />
    <glyph glyph-name="cent" unicode="&#xa2;" 
d="M276 640q-33 -15 -53 -46t-20 -67v-229q0 -37 20 -68t53 -46v456zM371 829v-87q14 -3 76 -43v28h95v-207h-95q-2 91 -76 121v-458q73 31 76 122h95q-2 -83 -47 -143q-46 -63 -124 -79v-87h-95v87q-73 17 -120.5 77.5t-47.5 137.5v229q0 76 47.5 136.5t120.5 77.5v88h95z
" />
    <glyph glyph-name="sterling" unicode="&#xa3;" 
d="M490 210h108v-217q-76 0 -272 -1q-173 -1 -272 -1v111q38 -2 66.5 20t28.5 60v177h-97v110h97v183q0 79 54.5 136t132.5 57q86 0 137 -60.5t51 -146.5h-108q0 41 -18 67q-22 30 -62 30q-33 0 -56.5 -24.5t-23.5 -58.5v-183h162v-110h-162q0 -15 2 -57t2 -66
q0 -89 -21 -134h251v108z" />
    <glyph glyph-name="bullet" unicode="&#x2022;" 
d="M437 300h-223v231h223v-231z" />
    <glyph glyph-name="germandbls" unicode="&#xdf;" horiz-adv-x="1300" 
d="M453 830h108l-1 -234l-107 1q0 58 -48 98t-110 40q-53 0 -94 -35q-44 -37 -44 -89q0 -50 55 -85q48 -31 103 -31q112 0 197 -72q89 -75 89 -184t-83 -185.5t-193 -76.5q-93 0 -168 55v-37h-108l1 259h106q1 -73 48.5 -120.5t120.5 -47.5q66 0 117.5 44.5t51.5 108.5
q0 63 -59 106q-54 40 -120 40q-100 0 -180 63q-85 68 -85 163q0 97 73.5 165.5t171.5 68.5q95 0 158 -42v27zM1103 830h108l-1 -234l-107 1q0 58 -48 98t-110 40q-53 0 -94 -35q-44 -37 -44 -89q0 -50 55 -85q48 -31 103 -31q112 0 197 -72q89 -75 89 -184t-83 -185.5
t-193 -76.5q-93 0 -168 55v-37h-108l1 259h106q1 -73 48.5 -120.5t120.5 -47.5q66 0 117.5 44.5t51.5 108.5q0 63 -59 106q-54 40 -120 40q-100 0 -180 63q-85 68 -85 163q0 97 73.5 165.5t171.5 68.5q95 0 158 -42v27z" />
    <glyph glyph-name="acute" unicode="&#xb4;" 
d="M222 865l-23 83l229 62l23 -84z" />
    <glyph glyph-name="dieresis" unicode="&#xa8;" 
d="M392 921q0 22 16 38t39 16q22 0 38 -16t16 -38q0 -23 -16 -39t-38 -16q-23 0 -39 16t-16 39zM149 921q0 22 16 38t38 16q23 0 39 -16t16 -38q0 -23 -16 -39t-39 -16q-22 0 -38 16t-16 39z" />
    <glyph glyph-name="AE" unicode="&#xc6;" 
d="M322 277v372l-70 -372h70zM302 829v2h299v-202h-91v110h-96v-281h113v-91h-113v-284h96v110h91v-202h-279v194h-88l-18 -100h50v-91h-217v91h74l141 744h38z" />
    <glyph glyph-name="Oslash" unicode="&#xd8;" 
d="M325 742q-63 0 -107.5 -45.5t-44.5 -108.5v-356l250 473q-42 37 -98 37zM325 82q62 0 107 45t45 109v357l-251 -474q43 -37 99 -37zM542 716q34 -59 34 -128v-352q0 -106 -73.5 -180.5t-177.5 -74.5q-81 0 -146 48l-19 -36h-113l61 115q-34 59 -34 128v352
q0 105 73.5 179.5t177.5 74.5q80 0 146 -47l19 37h113z" />
    <glyph glyph-name="yen" unicode="&#xa5;" 
d="M528 95v-101h-405v101h151v130h-107v100h107v9l-79 200q0 -1 -80 199h-64v101h223v-101h-52l103 -258l102 258h-51v101h223v-101h-65l-160 -408h101v-100h-101v-130h154z" />
    <glyph glyph-name="ae" unicode="&#xe6;" 
d="M322 277v372l-70 -372h70zM302 829v2h299v-202h-91v110h-96v-281h113v-91h-113v-284h96v110h91v-202h-279v194h-88l-18 -100h50v-91h-217v91h74l141 744h38z" />
    <glyph glyph-name="oslash" unicode="&#xf8;" 
d="M325 742q-63 0 -107.5 -45.5t-44.5 -108.5v-356l250 473q-42 37 -98 37zM325 82q62 0 107 45t45 109v357l-251 -474q43 -37 99 -37zM542 716q34 -59 34 -128v-352q0 -106 -73.5 -180.5t-177.5 -74.5q-81 0 -146 48l-19 -36h-113l61 115q-34 59 -34 128v352
q0 105 73.5 179.5t177.5 74.5q80 0 146 -47l19 37h113z" />
    <glyph glyph-name="questiondown" unicode="&#xbf;" 
d="M392 707h-134v138h134v-138zM325 105q77 0 122 48q40 43 44 116h107q-5 -116 -79 -194q-77 -80 -194 -80q-111 0 -192 76t-81 184q0 91 60 159.5t159 91.5v83h107l1 -187h-54q-64 0 -113 -40q-53 -43 -53 -107q0 -65 51 -107.5t115 -42.5z" />
    <glyph glyph-name="exclamdown" unicode="&#xa1;" 
d="M282 576h88l23 -230v-351h-133v351zM395 692h-139v137h139v-137z" />
    <glyph glyph-name="guillemotleft" unicode="&#xab;" 
d="M48 256l252 253l62 -62l-191 -191l191 -191l-62 -61zM288 256l252 253l62 -62l-191 -191l191 -191l-62 -61z" />
    <glyph glyph-name="guillemotright" unicode="&#xbb;" 
d="M602 256l-252 253l-62 -62l191 -191l-191 -191l62 -61zM362 256l-252 253l-62 -62l191 -191l-191 -191l62 -61z" />
    <glyph glyph-name="ellipsis" unicode="&#x2026;" 
d="M400 -5h-149v154h149v-154zM200 -5h-149v154h149v-154zM600 -5h-149v154h149v-154z" />
    <glyph glyph-name="Agrave" unicode="&#xc0;" 
d="M261 281h128l-64 341zM274 92v-101h-223v101h73l138 737h125l139 -737h73v-101h-223v101h48l-16 88h-166l-16 -88h48zM428 865l-229 61l23 84l229 -62z" />
    <glyph glyph-name="Atilde" unicode="&#xc3;" 
d="M261 281h128l-64 341zM274 92v-101h-223v101h73l138 737h125l139 -737h73v-101h-223v101h48l-16 88h-166l-16 -88h48zM365 877q-27 0 -53.5 16.5l-26.5 16.5q-13 0 -13 -23h-87q0 48 29 79t71 31q27 0 53.5 -16.5l26.5 -16.5q13 0 13 23h87q0 -48 -29 -79t-71 -31z" />
    <glyph glyph-name="Otilde" unicode="&#xd5;" 
d="M50 264v297q0 116 80 200t195 84t195 -84t80 -200v-297q0 -116 -80 -201.5t-195 -85.5t-195 85.5t-80 201.5zM166 561v-297q0 -68 46.5 -118.5t112.5 -50.5t112.5 51t46.5 118v297q0 67 -46.5 116t-112.5 49t-112.5 -49t-46.5 -116z" />
    <glyph glyph-name="OE" unicode="&#x152;" 
d="M600 832v-205h-96v109h-131v-274h146v-96h-146v-277h131v109h96v-205l-275 1q-113 0 -194 81t-81 196v282q0 115 81.5 196.5t197.5 82.5q88 1 271 0zM146 271q0 -62 36.5 -109.5t95.5 -63.5v628q-59 -16 -95.5 -63.5t-36.5 -109.5v-282z" />
    <glyph glyph-name="oe" unicode="&#x153;" 
d="M600 832v-205h-96v109h-131v-274h146v-96h-146v-277h131v109h96v-205l-275 1q-113 0 -194 81t-81 196v282q0 115 81.5 196.5t197.5 82.5q88 1 271 0zM146 271q0 -62 36.5 -109.5t95.5 -63.5v628q-59 -16 -95.5 -63.5t-36.5 -109.5v-282z" />
    <glyph glyph-name="endash" unicode="&#x2013;" 
d="M84 467h482v-109h-482v109z" />
    <glyph glyph-name="emdash" unicode="&#x2014;" 
d="M0 467h650v-109h-650v109z" />
    <glyph glyph-name="quotedblleft" unicode="&#x201c;" 
d="M196 832h68l-50 -124h65v-154h-149v154zM436 832h68l-50 -124h65v-154h-149v154z" />
    <glyph glyph-name="quotedblright" unicode="&#x201d;" 
d="M215 554h-69l50 124h-65v154h149v-154zM455 554h-69l50 124h-65v154h149v-154z" />
    <glyph glyph-name="quoteleft" unicode="&#x2018;" 
d="M317 832h68l-50 -124h65v-154h-149v154z" />
    <glyph glyph-name="quoteright" unicode="&#x2019;" 
d="M335 554h-69l50 124h-65v154h149v-154z" />
    <glyph glyph-name="divide" unicode="&#xf7;" 
d="M392 707h-134v138h134v-138zM325 105q77 0 122 48q40 43 44 116h107q-5 -116 -79 -194q-77 -80 -194 -80q-111 0 -192 76t-81 184q0 91 60 159.5t159 91.5v83h107l1 -187h-54q-64 0 -113 -40q-53 -43 -53 -107q0 -65 51 -107.5t115 -42.5z" />
    <glyph glyph-name="ydieresis" unicode="&#xff;" 
d="M170 101h100v230l-155 390h-64v110h229v-110h-48l93 -236l93 236h-48v110h229v-110h-65l-156 -399v-221h103v-110h-311v110zM392 921q0 22 16 38t39 16q22 0 38 -16t16 -38q0 -23 -16 -39t-38 -16q-23 0 -39 16t-16 39zM149 921q0 22 16 38t38 16q23 0 39 -16t16 -38
q0 -23 -16 -39t-39 -16q-22 0 -38 16t-16 39z" />
    <glyph glyph-name="Ydieresis" unicode="&#x178;" 
d="M170 101h100v230l-155 390h-64v110h229v-110h-48l93 -236l93 236h-48v110h229v-110h-65l-156 -399v-221h103v-110h-311v110zM392 921q0 22 16 38t39 16q22 0 38 -16t16 -38q0 -23 -16 -39t-38 -16q-23 0 -39 16t-16 39zM149 921q0 22 16 38t38 16q23 0 39 -16t16 -38
q0 -23 -16 -39t-39 -16q-22 0 -38 16t-16 39z" />
    <glyph glyph-name="currency" unicode="&#xa4;" 
d="M49 368h70v84h-70v109h70v37q0 101 70.5 173.5t170.5 72.5q73 0 133 -41v27h107l1 -246h-108q0 63 -34 105q-37 45 -99 45q-133 0 -133 -173h125v-109h-125v-84h125v-109h-125v-34q0 -56 39 -96t94 -40q60 0 98 46q35 43 35 104h108q0 -108 -66 -182q-68 -78 -175 -78
q-100 0 -170.5 72.5t-70.5 173.5v34h-70v109z" />
    <glyph glyph-name="guilsinglleft" unicode="&#x2039;" 
d="M168 256l252 253l62 -62l-191 -191l191 -191l-62 -61z" />
    <glyph glyph-name="guilsinglright" unicode="&#x203a;" 
d="M482 256l-252 -252l-62 61l191 191l-191 191l62 62z" />
    <glyph glyph-name="periodcentered" unicode="&#xb7;" 
d="M400 338h-149v154h149v-154z" />
    <glyph glyph-name="periodcentered" unicode="&#x2219;" 
d="M400 338h-149v154h149v-154z" />
    <glyph glyph-name="quotesinglbase" unicode="&#x201a;" 
d="M335 -129h-69l50 124h-65v154h149v-154z" />
    <glyph glyph-name="quotedblbase" unicode="&#x201e;" 
d="M215 -129h-69l50 124h-65v154h149v-154zM455 -129h-69l50 124h-65v154h149v-154z" />
    <glyph glyph-name="Acircumflex" unicode="&#xc2;" 
d="M261 281h128l-64 341zM274 92v-101h-223v101h73l138 737h125l139 -737h73v-101h-223v101h48l-16 88h-166l-16 -88h48zM418 866l-93 50l-93 -50l-41 77l134 71l134 -71z" />
    <glyph glyph-name="Ecircumflex" unicode="&#xca;" 
d="M492 208h107v-217h-548v110h79v620h-79v110h548v-217h-107v107h-254v-254h257v-109h-257v-257h254v107zM418 866l-93 50l-93 -50l-41 77l134 71l134 -71z" />
    <glyph glyph-name="Aacute" unicode="&#xc1;" 
d="M261 281h128l-64 341zM274 92v-101h-223v101h73l138 737h125l139 -737h73v-101h-223v101h48l-16 88h-166l-16 -88h48zM222 865l-23 83l229 62l23 -84z" />
    <glyph glyph-name="Edieresis" unicode="&#xcb;" 
d="M492 208h107v-217h-548v110h79v620h-79v110h548v-217h-107v107h-254v-254h257v-109h-257v-257h254v107zM392 921q0 22 16 38t39 16q22 0 38 -16t16 -38q0 -23 -16 -39t-38 -16q-23 0 -39 16t-16 39zM149 921q0 22 16 38t38 16q23 0 39 -16t16 -38q0 -23 -16 -39t-39 -16
q-22 0 -38 16t-16 39z" />
    <glyph glyph-name="Egrave" unicode="&#xc8;" 
d="M492 208h107v-217h-548v110h79v620h-79v110h548v-217h-107v107h-254v-254h257v-109h-257v-257h254v107zM428 865l-229 61l23 84l229 -62z" />
    <glyph glyph-name="Iacute" unicode="&#xcd;" 
d="M93 -7v118h177v601h-177v119h464v-119h-173v-601h173v-118h-464zM222 865l-23 83l229 62l23 -84z" />
    <glyph glyph-name="Icircumflex" unicode="&#xce;" 
d="M93 -7v118h177v601h-177v119h464v-119h-173v-601h173v-118h-464zM418 866l-93 50l-93 -50l-41 77l134 71l134 -71z" />
    <glyph glyph-name="Idieresis" unicode="&#xcf;" 
d="M93 -7v118h177v601h-177v119h464v-119h-173v-601h173v-118h-464zM392 921q0 22 16 38t39 16q22 0 38 -16t16 -38q0 -23 -16 -39t-38 -16q-23 0 -39 16t-16 39zM149 921q0 22 16 38t38 16q23 0 39 -16t16 -38q0 -23 -16 -39t-39 -16q-22 0 -38 16t-16 39z" />
    <glyph glyph-name="Igrave" unicode="&#xcc;" 
d="M93 -7v118h177v601h-177v119h464v-119h-173v-601h173v-118h-464zM428 865l-229 61l23 84l229 -62z" />
    <glyph glyph-name="Oacute" unicode="&#xd3;" 
d="M50 264v297q0 116 80 200t195 84t195 -84t80 -200v-297q0 -116 -80 -201.5t-195 -85.5t-195 85.5t-80 201.5zM166 561v-297q0 -68 46.5 -118.5t112.5 -50.5t112.5 51t46.5 118v297q0 67 -46.5 116t-112.5 49t-112.5 -49t-46.5 -116zM222 865l-23 83l229 62l23 -84z" />
    <glyph glyph-name="Ocircumflex" unicode="&#xd4;" 
d="M50 264v297q0 116 80 200t195 84t195 -84t80 -200v-297q0 -116 -80 -201.5t-195 -85.5t-195 85.5t-80 201.5zM166 561v-297q0 -68 46.5 -118.5t112.5 -50.5t112.5 51t46.5 118v297q0 67 -46.5 116t-112.5 49t-112.5 -49t-46.5 -116zM418 866l-93 50l-93 -50l-41 77
l134 71l134 -71z" />
    <glyph glyph-name="Ograve" unicode="&#xd2;" 
d="M50 264v297q0 116 80 200t195 84t195 -84t80 -200v-297q0 -116 -80 -201.5t-195 -85.5t-195 85.5t-80 201.5zM166 561v-297q0 -68 46.5 -118.5t112.5 -50.5t112.5 51t46.5 118v297q0 67 -46.5 116t-112.5 49t-112.5 -49t-46.5 -116zM428 865l-229 61l23 84l229 -62z" />
    <glyph glyph-name="Uacute" unicode="&#xda;" 
d="M326 -23q-90 0 -152.5 67t-62.5 157v518h-60v110h229v-110h-62v-518q0 -45 31.5 -80t76.5 -35q44 0 75 36q30 33 30 79v518h-61v110h229v-110h-60l-1 -519q0 -90 -60 -156q-63 -67 -152 -67zM222 865l-23 83l229 62l23 -84z" />
    <glyph glyph-name="Ucircumflex" unicode="&#xdb;" 
d="M326 -23q-90 0 -152.5 67t-62.5 157v518h-60v110h229v-110h-62v-518q0 -45 31.5 -80t76.5 -35q44 0 75 36q30 33 30 79v518h-61v110h229v-110h-60l-1 -519q0 -90 -60 -156q-63 -67 -152 -67zM418 866l-93 50l-93 -50l-41 77l134 71l134 -71z" />
    <glyph glyph-name="Ugrave" unicode="&#xd9;" 
d="M326 -23q-90 0 -152.5 67t-62.5 157v518h-60v110h229v-110h-62v-518q0 -45 31.5 -80t76.5 -35q44 0 75 36q30 33 30 79v518h-61v110h229v-110h-60l-1 -519q0 -90 -60 -156q-63 -67 -152 -67zM428 865l-229 61l23 84l229 -62z" />
    <glyph glyph-name="circumflex" unicode="&#x2c6;" 
d="M418 866l-93 50l-93 -50l-41 77l134 71l134 -71z" />
    <glyph glyph-name="tilde" unicode="&#x2dc;" 
d="M365 877q-27 0 -53.5 16.5l-26.5 16.5q-13 0 -13 -23h-87q0 48 29 79t71 31q27 0 53.5 -16.5l26.5 -16.5q13 0 13 23h87q0 -48 -29 -79t-71 -31z" />
    <glyph glyph-name="cedilla" unicode="&#xb8;" 
d="M276 80h98v-206h-98v206z" />
    <glyph glyph-name="Scaron" unicode="&#x160;" 
d="M232 1017l93 -50l93 50l41 -77l-134 -72l-134 72zM453 830h108l-1 -234l-107 1q0 58 -48 98t-110 40q-53 0 -94 -35q-44 -37 -44 -89q0 -50 55 -85q48 -31 103 -31q112 0 197 -72q89 -75 89 -184t-83 -185.5t-193 -76.5q-93 0 -168 55v-37h-108l1 259h106
q1 -73 48.5 -120.5t120.5 -47.5q66 0 117.5 44.5t51.5 108.5q0 63 -59 106q-54 40 -120 40q-100 0 -180 63q-85 68 -85 163q0 97 73.5 165.5t171.5 68.5q95 0 158 -42v27z" />
    <glyph glyph-name="scaron" unicode="&#x161;" 
d="M453 830h108l-1 -234l-107 1q0 58 -48 98t-110 40q-53 0 -94 -35q-44 -37 -44 -89q0 -50 55 -85q48 -31 103 -31q112 0 197 -72q89 -75 89 -184t-83 -185.5t-193 -76.5q-93 0 -168 55v-37h-108l1 259h106q1 -73 48.5 -120.5t120.5 -47.5q66 0 117.5 44.5t51.5 108.5
q0 63 -59 106q-54 40 -120 40q-100 0 -180 63q-85 68 -85 163q0 97 73.5 165.5t171.5 68.5q95 0 158 -42v27zM232 1017l93 -50l93 50l41 -77l-134 -72l-134 72z" />
    <glyph glyph-name="Eth" unicode="&#xd0;" 
d="M147 467v254h-99v110h242q169 0 248 -132q64 -106 64 -287q0 -160 -60 -275q-76 -146 -224 -146h-270v110h99v257h-97v109h97zM372 358h-117v-257h57q100 -1 147 113q35 83 35 198q0 191 -76 266q-46 44 -104 44q-11 0 -18 -1h-41v-254h117v-109z" />
    <glyph glyph-name="eth" unicode="&#xf0;" 
d="M147 467v254h-99v110h242q169 0 248 -132q64 -106 64 -287q0 -160 -60 -275q-76 -146 -224 -146h-270v110h99v257h-97v109h97zM372 358h-117v-257h57q100 -1 147 113q35 83 35 198q0 191 -76 266q-46 44 -104 44q-11 0 -18 -1h-41v-254h117v-109z" />
    <glyph glyph-name="Yacute" unicode="&#xdd;" 
d="M170 101h100v230l-155 390h-64v110h229v-110h-48l93 -236l93 236h-48v110h229v-110h-65l-156 -399v-221h103v-110h-311v110zM222 865l-23 83l229 62l23 -84z" />
    <glyph glyph-name="yacute" unicode="&#xfd;" 
d="M170 101h100v230l-155 390h-64v110h229v-110h-48l93 -236l93 236h-48v110h229v-110h-65l-156 -399v-221h103v-110h-311v110zM222 865l-23 83l229 62l23 -84z" />
    <glyph glyph-name="Thorn" unicode="&#xde;" 
d="M238 540v-254l129 -1q51 0 87.5 37.5t36.5 89.5t-36.5 90t-87.5 38h-129zM51 101h79v620h-79v110h263v-110h-76v-72h129q97 0 164.5 -69.5t67.5 -167.5q0 -97 -68 -167t-165 -69h-128v-75h76v-110h-263v110z" />
    <glyph glyph-name="thorn" unicode="&#xfe;" 
d="M238 540v-254l129 -1q51 0 87.5 37.5t36.5 89.5t-36.5 90t-87.5 38h-129zM51 101h79v620h-79v110h263v-110h-76v-72h129q97 0 164.5 -69.5t67.5 -167.5q0 -97 -68 -167t-165 -69h-128v-75h76v-110h-263v110z" />
    <glyph glyph-name="Zcaron" unicode="&#x17d;" 
d="M232 1017l93 -50l93 50l41 -77l-134 -72l-134 72zM595 -6h-544v86l407 641h-297v-107h-107v217h540v-98l-400 -630h297v107h103z" />
    <glyph glyph-name="zcaron" unicode="&#x17e;" 
d="M595 -6h-544v86l407 641h-297v-107h-107v217h540v-98l-400 -630h297v107h103zM232 1017l93 -50l93 50l41 -77l-134 -72l-134 72z" />
  </font>
</defs>
</svg>
